<?xml version="1.0" encoding="UTF-8"?>
<!--Generator: Apple Native CoreSVG 175-->
<!DOCTYPE svg
PUBLIC "-//W3C//DTD SVG 1.1//EN"
       "http://www.w3.org/Graphics/SVG/1.1/DTD/svg11.dtd">
<svg version="1.1" xmlns="http://www.w3.org/2000/svg" xmlns:xlink="http://www.w3.org/1999/xlink" width="3300" height="2200">
 <!--glyph: "uni1010AE.medium", point size: 100.0, font version: "17.0d11e1", template writer version: "65.1"-->
 <style>.hierarchical-0:secondary {fill:#4D4D4D}
.hierarchical-1:primary {fill:#212121}

.SFSymbolsPreview212121 {fill:#212121;opacity:1.0}
.SFSymbolsPreview4D4D4D {fill:#4D4D4D;opacity:1.0}
</style>
 <g id="Notes">
  <rect height="2200" id="artboard" style="fill:white;opacity:1" width="3300" x="0" y="0"/>
  <line style="fill:none;stroke:black;opacity:1;stroke-width:0.5;" x1="263" x2="3036" y1="292" y2="292"/>
  <text style="stroke:none;fill:black;font-family:sans-serif;font-size:13;font-weight:bold;" transform="matrix(1 0 0 1 263 322)">Weight/Scale Variations</text>
  <text style="stroke:none;fill:black;font-family:sans-serif;font-size:13;text-anchor:middle;" transform="matrix(1 0 0 1 559.711 322)">Ultralight</text>
  <text style="stroke:none;fill:black;font-family:sans-serif;font-size:13;text-anchor:middle;" transform="matrix(1 0 0 1 856.422 322)">Thin</text>
  <text style="stroke:none;fill:black;font-family:sans-serif;font-size:13;text-anchor:middle;" transform="matrix(1 0 0 1 1153.13 322)">Light</text>
  <text style="stroke:none;fill:black;font-family:sans-serif;font-size:13;text-anchor:middle;" transform="matrix(1 0 0 1 1449.84 322)">Regular</text>
  <text style="stroke:none;fill:black;font-family:sans-serif;font-size:13;text-anchor:middle;" transform="matrix(1 0 0 1 1746.56 322)">Medium</text>
  <text style="stroke:none;fill:black;font-family:sans-serif;font-size:13;text-anchor:middle;" transform="matrix(1 0 0 1 2043.27 322)">Semibold</text>
  <text style="stroke:none;fill:black;font-family:sans-serif;font-size:13;text-anchor:middle;" transform="matrix(1 0 0 1 2339.98 322)">Bold</text>
  <text style="stroke:none;fill:black;font-family:sans-serif;font-size:13;text-anchor:middle;" transform="matrix(1 0 0 1 2636.69 322)">Heavy</text>
  <text style="stroke:none;fill:black;font-family:sans-serif;font-size:13;text-anchor:middle;" transform="matrix(1 0 0 1 2933.4 322)">Black</text>
  <line style="fill:none;stroke:black;opacity:1;stroke-width:0.5;" x1="263" x2="3036" y1="1903" y2="1903"/>
  <g transform="matrix(1 0 0 1 263 1933)">
   <path d="M9.24805 0.830078Q10.8691 0.830078 12.2949 0.214844Q13.7207-0.400391 14.8096-1.49414Q15.8984-2.58789 16.5186-4.01367Q17.1387-5.43945 17.1387-7.05078Q17.1387-8.66211 16.5186-10.0879Q15.8984-11.5137 14.8047-12.6074Q13.7109-13.7012 12.2852-14.3164Q10.8594-14.9316 9.23828-14.9316Q7.62695-14.9316 6.20117-14.3164Q4.77539-13.7012 3.69141-12.6074Q2.60742-11.5137 1.9873-10.0879Q1.36719-8.66211 1.36719-7.05078Q1.36719-5.43945 1.9873-4.01367Q2.60742-2.58789 3.69629-1.49414Q4.78516-0.400391 6.21094 0.214844Q7.63672 0.830078 9.24805 0.830078ZM9.24805-0.654297Q7.91992-0.654297 6.7627-1.14746Q5.60547-1.64062 4.73145-2.51953Q3.85742-3.39844 3.36426-4.56055Q2.87109-5.72266 2.87109-7.05078Q2.87109-8.37891 3.35938-9.54102Q3.84766-10.7031 4.72168-11.582Q5.5957-12.4609 6.75293-12.9541Q7.91016-13.4473 9.23828-13.4473Q10.5762-13.4473 11.7334-12.9541Q12.8906-12.4609 13.7695-11.582Q14.6484-10.7031 15.1465-9.54102Q15.6445-8.37891 15.6445-7.05078Q15.6445-5.72266 15.1514-4.56055Q14.6582-3.39844 13.7842-2.51953Q12.9102-1.64062 11.748-1.14746Q10.5859-0.654297 9.24805-0.654297ZM5.6543-7.05078Q5.6543-6.72852 5.85938-6.52832Q6.06445-6.32812 6.40625-6.32812L8.51562-6.32812L8.51562-4.20898Q8.51562-3.88672 8.71094-3.67676Q8.90625-3.4668 9.23828-3.4668Q9.56055-3.4668 9.77051-3.67676Q9.98047-3.88672 9.98047-4.20898L9.98047-6.32812L12.0898-6.32812Q12.4219-6.32812 12.627-6.52832Q12.832-6.72852 12.832-7.05078Q12.832-7.38281 12.627-7.58789Q12.4219-7.79297 12.0898-7.79297L9.98047-7.79297L9.98047-9.90234Q9.98047-10.2344 9.77051-10.4443Q9.56055-10.6543 9.23828-10.6543Q8.90625-10.6543 8.71094-10.4443Q8.51562-10.2344 8.51562-9.90234L8.51562-7.79297L6.40625-7.79297Q6.06445-7.79297 5.85938-7.58789Q5.6543-7.38281 5.6543-7.05078Z"/>
  </g>
  <g transform="matrix(1 0 0 1 281.867 1933)">
   <path d="M11.709 2.91016Q13.75 2.91016 15.5518 2.12891Q17.3535 1.34766 18.7305-0.0292969Q20.1074-1.40625 20.8887-3.20801Q21.6699-5.00977 21.6699-7.05078Q21.6699-9.0918 20.8887-10.8936Q20.1074-12.6953 18.7305-14.0723Q17.3535-15.4492 15.5469-16.2305Q13.7402-17.0117 11.6992-17.0117Q9.6582-17.0117 7.85645-16.2305Q6.05469-15.4492 4.68262-14.0723Q3.31055-12.6953 2.5293-10.8936Q1.74805-9.0918 1.74805-7.05078Q1.74805-5.00977 2.5293-3.20801Q3.31055-1.40625 4.6875-0.0292969Q6.06445 1.34766 7.86621 2.12891Q9.66797 2.91016 11.709 2.91016ZM11.709 1.25Q9.98047 1.25 8.47656 0.605469Q6.97266-0.0390625 5.83496-1.17676Q4.69727-2.31445 4.05762-3.81836Q3.41797-5.32227 3.41797-7.05078Q3.41797-8.7793 4.05762-10.2832Q4.69727-11.7871 5.83008-12.9297Q6.96289-14.0723 8.4668-14.7119Q9.9707-15.3516 11.6992-15.3516Q13.4277-15.3516 14.9316-14.7119Q16.4355-14.0723 17.5781-12.9297Q18.7207-11.7871 19.3652-10.2832Q20.0098-8.7793 20.0098-7.05078Q20.0098-5.32227 19.3701-3.81836Q18.7305-2.31445 17.5928-1.17676Q16.4551-0.0390625 14.9463 0.605469Q13.4375 1.25 11.709 1.25ZM7.17773-7.05078Q7.17773-6.69922 7.41211-6.47461Q7.64648-6.25 8.01758-6.25L10.8887-6.25L10.8887-3.36914Q10.8887-2.99805 11.1133-2.76855Q11.3379-2.53906 11.6895-2.53906Q12.0605-2.53906 12.29-2.76855Q12.5195-2.99805 12.5195-3.36914L12.5195-6.25L15.4004-6.25Q15.7715-6.25 16.001-6.47461Q16.2305-6.69922 16.2305-7.05078Q16.2305-7.42188 16.001-7.65137Q15.7715-7.88086 15.4004-7.88086L12.5195-7.88086L12.5195-10.752Q12.5195-11.1328 12.29-11.3623Q12.0605-11.5918 11.6895-11.5918Q11.3379-11.5918 11.1133-11.3574Q10.8887-11.123 10.8887-10.752L10.8887-7.88086L8.01758-7.88086Q7.63672-7.88086 7.40723-7.65137Q7.17773-7.42188 7.17773-7.05078Z"/>
  </g>
  <g transform="matrix(1 0 0 1 305.646 1933)">
   <path d="M14.9707 5.66406Q17.0605 5.66406 18.96 5.01465Q20.8594 4.36523 22.4512 3.19336Q24.043 2.02148 25.2197 0.429688Q26.3965-1.16211 27.0459-3.06641Q27.6953-4.9707 27.6953-7.05078Q27.6953-9.14062 27.0459-11.04Q26.3965-12.9395 25.2197-14.5312Q24.043-16.123 22.4512-17.2998Q20.8594-18.4766 18.9551-19.126Q17.0508-19.7754 14.9609-19.7754Q12.8711-19.7754 10.9717-19.126Q9.07227-18.4766 7.48535-17.2998Q5.89844-16.123 4.72168-14.5312Q3.54492-12.9395 2.90039-11.04Q2.25586-9.14062 2.25586-7.05078Q2.25586-4.9707 2.90527-3.06641Q3.55469-1.16211 4.72656 0.429688Q5.89844 2.02148 7.49023 3.19336Q9.08203 4.36523 10.9814 5.01465Q12.8809 5.66406 14.9707 5.66406ZM14.9707 3.84766Q13.1641 3.84766 11.5283 3.2959Q9.89258 2.74414 8.53516 1.74805Q7.17773 0.751953 6.17676-0.610352Q5.17578-1.97266 4.62891-3.6084Q4.08203-5.24414 4.08203-7.05078Q4.08203-8.86719 4.62891-10.5029Q5.17578-12.1387 6.17188-13.501Q7.16797-14.8633 8.52539-15.8594Q9.88281-16.8555 11.5186-17.4023Q13.1543-17.9492 14.9609-17.9492Q16.7773-17.9492 18.4131-17.4023Q20.0488-16.8555 21.4111-15.8594Q22.7734-14.8633 23.7695-13.501Q24.7656-12.1387 25.3174-10.5029Q25.8691-8.86719 25.8691-7.05078Q25.8789-5.24414 25.332-3.6084Q24.7852-1.97266 23.7842-0.610352Q22.7832 0.751953 21.4209 1.74805Q20.0586 2.74414 18.4229 3.2959Q16.7871 3.84766 14.9707 3.84766ZM9.19922-7.05078Q9.19922-6.66992 9.45801-6.4209Q9.7168-6.17188 10.1172-6.17188L14.0625-6.17188L14.0625-2.2168Q14.0625-1.81641 14.3115-1.55762Q14.5605-1.29883 14.9512-1.29883Q15.3516-1.29883 15.6104-1.55273Q15.8691-1.80664 15.8691-2.2168L15.8691-6.17188L19.8242-6.17188Q20.2246-6.17188 20.4785-6.4209Q20.7324-6.66992 20.7324-7.05078Q20.7324-7.46094 20.4785-7.71484Q20.2246-7.96875 19.8242-7.96875L15.8691-7.96875L15.8691-11.9141Q15.8691-12.3242 15.6104-12.583Q15.3516-12.8418 14.9512-12.8418Q14.5605-12.8418 14.3115-12.583Q14.0625-12.3242 14.0625-11.9141L14.0625-7.96875L10.1172-7.96875Q9.70703-7.96875 9.45312-7.71484Q9.19922-7.46094 9.19922-7.05078Z"/>
  </g>
  <text style="stroke:none;fill:black;font-family:sans-serif;font-size:13;font-weight:bold;" transform="matrix(1 0 0 1 263 1953)">Design Variations</text>
  <text style="stroke:none;fill:black;font-family:sans-serif;font-size:13;" transform="matrix(1 0 0 1 263 1971)">Symbols are supported in up to nine weights and three scales.</text>
  <text style="stroke:none;fill:black;font-family:sans-serif;font-size:13;" transform="matrix(1 0 0 1 263 1989)">For optimal layout with text and other symbols, vertically align</text>
  <text style="stroke:none;fill:black;font-family:sans-serif;font-size:13;" transform="matrix(1 0 0 1 263 2007)">symbols with the adjacent text.</text>
  <line style="fill:none;stroke:#00AEEF;stroke-width:0.5;opacity:1.0;" x1="776" x2="776" y1="1919" y2="1933"/>
  <g transform="matrix(1 0 0 1 776 1933)">
   <path d="M3.31055 0.15625Q3.70117 0.15625 3.91602-0.00976562Q4.13086-0.175781 4.26758-0.585938L5.52734-4.0332L11.2891-4.0332L12.5488-0.585938Q12.6855-0.175781 12.9004-0.00976562Q13.1152 0.15625 13.4961 0.15625Q13.8867 0.15625 14.1162-0.0585938Q14.3457-0.273438 14.3457-0.644531Q14.3457-0.869141 14.2383-1.17188L9.6582-13.3691Q9.48242-13.8184 9.17969-14.043Q8.87695-14.2676 8.4082-14.2676Q7.5-14.2676 7.17773-13.3789L2.59766-1.16211Q2.49023-0.859375 2.49023-0.634766Q2.49023-0.263672 2.70996-0.0537109Q2.92969 0.15625 3.31055 0.15625ZM6.00586-5.51758L8.37891-12.0898L8.42773-12.0898L10.8008-5.51758Z"/>
  </g>
  <line style="fill:none;stroke:#00AEEF;stroke-width:0.5;opacity:1.0;" x1="793.197" x2="793.197" y1="1919" y2="1933"/>
  <text style="stroke:none;fill:black;font-family:sans-serif;font-size:13;font-weight:bold;" transform="matrix(1 0 0 1 776 1953)">Margins</text>
  <text style="stroke:none;fill:black;font-family:sans-serif;font-size:13;" transform="matrix(1 0 0 1 776 1971)">Leading and trailing margins on the left and right side of each symbol</text>
  <text style="stroke:none;fill:black;font-family:sans-serif;font-size:13;" transform="matrix(1 0 0 1 776 1989)">can be adjusted by modifying the x-location of the margin guidelines.</text>
  <text style="stroke:none;fill:black;font-family:sans-serif;font-size:13;" transform="matrix(1 0 0 1 776 2007)">Modifications are automatically applied proportionally to all</text>
  <text style="stroke:none;fill:black;font-family:sans-serif;font-size:13;" transform="matrix(1 0 0 1 776 2025)">scales and weights.</text>
  <g transform="matrix(1 0 0 1 1289 1933)">
   <path d="M2.8418 1.86523L4.54102 3.57422Q5.18555 4.22852 5.90332 4.17969Q6.62109 4.13086 7.31445 3.35938L18.0078-8.42773L17.041-9.4043L6.42578 2.27539Q6.16211 2.57812 5.89355 2.61719Q5.625 2.65625 5.27344 2.30469L4.10156 1.14258Q3.75 0.791016 3.79395 0.522461Q3.83789 0.253906 4.14062-0.0195312L15.6152-10.8203L14.6387-11.7871L3.04688-0.898438Q2.30469-0.214844 2.25098 0.498047Q2.19727 1.21094 2.8418 1.86523ZM9.25781-16.3281Q8.94531-16.0254 8.90625-15.6348Q8.86719-15.2441 9.04297-14.9512Q9.21875-14.6777 9.55566-14.541Q9.89258-14.4043 10.3809-14.5215Q11.4746-14.7754 12.5977-14.7314Q13.7207-14.6875 14.7949-13.9844L14.209-12.5293Q13.9551-11.9043 14.0674-11.4404Q14.1797-10.9766 14.5801-10.5664L16.875-8.25195Q17.2363-7.88086 17.5781-7.82227Q17.9199-7.76367 18.3398-7.8418L19.4043-8.03711L20.0684-7.36328L20.0293-6.80664Q20-6.43555 20.1221-6.12305Q20.2441-5.81055 20.6055-5.44922L21.3672-4.70703Q21.7285-4.3457 22.1533-4.33105Q22.5781-4.31641 22.9297-4.66797L25.8398-7.58789Q26.1914-7.93945 26.1816-8.35449Q26.1719-8.76953 25.8105-9.13086L25.0391-9.89258Q24.6875-10.2539 24.3799-10.3857Q24.0723-10.5176 23.7109-10.4883L23.1348-10.4395L22.4902-11.0742L22.7344-12.1973Q22.832-12.6172 22.6953-12.9834Q22.5586-13.3496 22.1191-13.7891L19.9219-15.9766Q18.6719-17.2168 17.2607-17.8369Q15.8496-18.457 14.4189-18.4814Q12.9883-18.5059 11.665-17.959Q10.3418-17.4121 9.25781-16.3281ZM10.752-15.957Q11.6602-16.6211 12.7002-16.9043Q13.7402-17.1875 14.8047-17.085Q15.8691-16.9824 16.8701-16.5137Q17.8711-16.0449 18.7012-15.2051L21.1328-12.793Q21.3086-12.6172 21.3525-12.4512Q21.3965-12.2852 21.3379-12.0312L21.0156-10.5469L22.5195-9.0625L23.5059-9.12109Q23.6914-9.13086 23.7891-9.09668Q23.8867-9.0625 24.0332-8.91602L24.6094-8.33984L22.168-5.89844L21.5918-6.47461Q21.4453-6.62109 21.4062-6.71875Q21.3672-6.81641 21.377-7.01172L21.4453-7.98828L19.9512-9.47266L18.4277-9.21875Q18.1836-9.16992 18.042-9.2041Q17.9004-9.23828 17.7148-9.41406L15.7129-11.416Q15.5176-11.5918 15.4932-11.7529Q15.4688-11.9141 15.5859-12.1875L16.4648-14.2773Q15.293-15.3711 13.8281-15.791Q12.3633-16.2109 10.8398-15.7617Q10.7227-15.7324 10.6885-15.8057Q10.6543-15.8789 10.752-15.957Z"/>
  </g>
  <text style="stroke:none;fill:black;font-family:sans-serif;font-size:13;font-weight:bold;" transform="matrix(1 0 0 1 1289 1953)">Exporting</text>
  <text style="stroke:none;fill:black;font-family:sans-serif;font-size:13;" transform="matrix(1 0 0 1 1289 1971)">Symbols should be outlined when exporting to ensure the</text>
  <text style="stroke:none;fill:black;font-family:sans-serif;font-size:13;" transform="matrix(1 0 0 1 1289 1989)">design is preserved when submitting to Xcode.</text>
  <text id="template-version" style="stroke:none;fill:black;font-family:sans-serif;font-size:13;text-anchor:end;" transform="matrix(1 0 0 1 3036 1933)">Template v.3.0</text>
  <text style="stroke:none;fill:black;font-family:sans-serif;font-size:13;text-anchor:end;" transform="matrix(1 0 0 1 3036 1951)">Requires Xcode 13 or greater</text>
  <text id="descriptive-name" style="stroke:none;fill:black;font-family:sans-serif;font-size:13;text-anchor:end;" transform="matrix(1 0 0 1 3036 1969)">Generated from photo.circle</text>
  <text style="stroke:none;fill:black;font-family:sans-serif;font-size:13;text-anchor:end;" transform="matrix(1 0 0 1 3036 1987)">Typeset at 100 points</text>
  <text style="stroke:none;fill:black;font-family:sans-serif;font-size:13;" transform="matrix(1 0 0 1 263 726)">Small</text>
  <text style="stroke:none;fill:black;font-family:sans-serif;font-size:13;" transform="matrix(1 0 0 1 263 1156)">Medium</text>
  <text style="stroke:none;fill:black;font-family:sans-serif;font-size:13;" transform="matrix(1 0 0 1 263 1586)">Large</text>
 </g>
 <g id="Guides">
  <g id="H-reference" style="fill:#27AAE1;stroke:none;" transform="matrix(1 0 0 1 339 696)">
   <path d="M0.993347 0L3.6377 0L29.3282-67.1326L30.0301-67.1326L30.0301-70.459L28.1227-70.459ZM11.6882-24.4797L46.9818-24.4797L46.2311-26.7288L12.4382-26.7288ZM55.1193 0L57.7637 0L30.6381-70.459L29.4327-70.459L29.4327-67.1326Z"/>
  </g>
  <line id="Baseline-S" style="fill:none;stroke:#27AAE1;opacity:1;stroke-width:0.5;" x1="263" x2="3036" y1="696" y2="696"/>
  <line id="Capline-S" style="fill:none;stroke:#27AAE1;opacity:1;stroke-width:0.5;" x1="263" x2="3036" y1="625.541" y2="625.541"/>
  <g id="H-reference" style="fill:#27AAE1;stroke:none;" transform="matrix(1 0 0 1 339 1126)">
   <path d="M0.993347 0L3.6377 0L29.3282-67.1326L30.0301-67.1326L30.0301-70.459L28.1227-70.459ZM11.6882-24.4797L46.9818-24.4797L46.2311-26.7288L12.4382-26.7288ZM55.1193 0L57.7637 0L30.6381-70.459L29.4327-70.459L29.4327-67.1326Z"/>
  </g>
  <line id="Baseline-M" style="fill:none;stroke:#27AAE1;opacity:1;stroke-width:0.5;" x1="263" x2="3036" y1="1126" y2="1126"/>
  <line id="Capline-M" style="fill:none;stroke:#27AAE1;opacity:1;stroke-width:0.5;" x1="263" x2="3036" y1="1055.54" y2="1055.54"/>
  <g id="H-reference" style="fill:#27AAE1;stroke:none;" transform="matrix(1 0 0 1 339 1556)">
   <path d="M0.993347 0L3.6377 0L29.3282-67.1326L30.0301-67.1326L30.0301-70.459L28.1227-70.459ZM11.6882-24.4797L46.9818-24.4797L46.2311-26.7288L12.4382-26.7288ZM55.1193 0L57.7637 0L30.6381-70.459L29.4327-70.459L29.4327-67.1326Z"/>
  </g>
  <line id="Baseline-L" style="fill:none;stroke:#27AAE1;opacity:1;stroke-width:0.5;" x1="263" x2="3036" y1="1556" y2="1556"/>
  <line id="Capline-L" style="fill:none;stroke:#27AAE1;opacity:1;stroke-width:0.5;" x1="263" x2="3036" y1="1485.54" y2="1485.54"/>
  <line id="left-margin-Ultralight-S" style="fill:none;stroke:#00AEEF;stroke-width:0.5;opacity:1.0;" x1="515.649" x2="515.649" y1="600.785" y2="720.121"/>
  <line id="right-margin-Ultralight-S" style="fill:none;stroke:#00AEEF;stroke-width:0.5;opacity:1.0;" x1="603.773" x2="603.773" y1="600.785" y2="720.121"/>
  <line id="left-margin-Thin-S" style="fill:none;stroke:#00AEEF;stroke-width:0.5;opacity:1.0;" x1="811.863" x2="811.863" y1="600.785" y2="720.121"/>
  <line id="right-margin-Thin-S" style="fill:none;stroke:#00AEEF;stroke-width:0.5;opacity:1.0;" x1="900.982" x2="900.982" y1="600.785" y2="720.121"/>
  <line id="left-margin-Light-S" style="fill:none;stroke:#00AEEF;stroke-width:0.5;opacity:1.0;" x1="1107.6" x2="1107.6" y1="600.785" y2="720.121"/>
  <line id="right-margin-Light-S" style="fill:none;stroke:#00AEEF;stroke-width:0.5;opacity:1.0;" x1="1198.66" x2="1198.66" y1="600.785" y2="720.121"/>
  <line id="left-margin-Regular-S" style="fill:none;stroke:#00AEEF;stroke-width:0.5;opacity:1.0;" x1="1403.58" x2="1403.58" y1="600.785" y2="720.121"/>
  <line id="right-margin-Regular-S" style="fill:none;stroke:#00AEEF;stroke-width:0.5;opacity:1.0;" x1="1496.11" x2="1496.11" y1="600.785" y2="720.121"/>
  <line id="left-margin-Medium-S" style="fill:none;stroke:#00AEEF;stroke-width:0.5;opacity:1.0;" x1="1699.83" x2="1699.83" y1="600.785" y2="720.121"/>
  <line id="right-margin-Medium-S" style="fill:none;stroke:#00AEEF;stroke-width:0.5;opacity:1.0;" x1="1793.28" x2="1793.28" y1="600.785" y2="720.121"/>
  <line id="left-margin-Semibold-S" style="fill:none;stroke:#00AEEF;stroke-width:0.5;opacity:1.0;" x1="1996.19" x2="1996.19" y1="600.785" y2="720.121"/>
  <line id="right-margin-Semibold-S" style="fill:none;stroke:#00AEEF;stroke-width:0.5;opacity:1.0;" x1="2090.35" x2="2090.35" y1="600.785" y2="720.121"/>
  <line id="left-margin-Bold-S" style="fill:none;stroke:#00AEEF;stroke-width:0.5;opacity:1.0;" x1="2292.43" x2="2292.43" y1="600.785" y2="720.121"/>
  <line id="right-margin-Bold-S" style="fill:none;stroke:#00AEEF;stroke-width:0.5;opacity:1.0;" x1="2387.52" x2="2387.52" y1="600.785" y2="720.121"/>
  <line id="left-margin-Heavy-S" style="fill:none;stroke:#00AEEF;stroke-width:0.5;opacity:1.0;" x1="2588.47" x2="2588.47" y1="600.785" y2="720.121"/>
  <line id="right-margin-Heavy-S" style="fill:none;stroke:#00AEEF;stroke-width:0.5;opacity:1.0;" x1="2684.91" x2="2684.91" y1="600.785" y2="720.121"/>
  <line id="left-margin-Black-S" style="fill:none;stroke:#00AEEF;stroke-width:0.5;opacity:1.0;" x1="2884.57" x2="2884.57" y1="600.785" y2="720.121"/>
  <line id="right-margin-Black-S" style="fill:none;stroke:#00AEEF;stroke-width:0.5;opacity:1.0;" x1="2982.23" x2="2982.23" y1="600.785" y2="720.121"/>
  <line id="left-margin-Ultralight-M" style="fill:none;stroke:#00AEEF;stroke-width:0.5;opacity:1.0;" x1="503.641" x2="503.641" y1="1030.79" y2="1150.12"/>
  <line id="right-margin-Ultralight-M" style="fill:none;stroke:#00AEEF;stroke-width:0.5;opacity:1.0;" x1="615.781" x2="615.781" y1="1030.79" y2="1150.12"/>
  <line id="left-margin-Thin-M" style="fill:none;stroke:#00AEEF;stroke-width:0.5;opacity:1.0;" x1="799.793" x2="799.793" y1="1030.79" y2="1150.12"/>
  <line id="right-margin-Thin-M" style="fill:none;stroke:#00AEEF;stroke-width:0.5;opacity:1.0;" x1="913.051" x2="913.051" y1="1030.79" y2="1150.12"/>
  <line id="left-margin-Light-M" style="fill:none;stroke:#00AEEF;stroke-width:0.5;opacity:1.0;" x1="1095.41" x2="1095.41" y1="1030.79" y2="1150.12"/>
  <line id="right-margin-Light-M" style="fill:none;stroke:#00AEEF;stroke-width:0.5;opacity:1.0;" x1="1210.85" x2="1210.85" y1="1030.79" y2="1150.12"/>
  <line id="left-margin-Regular-M" style="fill:none;stroke:#00AEEF;stroke-width:0.5;opacity:1.0;" x1="1391.3" x2="1391.3" y1="1030.79" y2="1150.12"/>
  <line id="right-margin-Regular-M" style="fill:none;stroke:#00AEEF;stroke-width:0.5;opacity:1.0;" x1="1508.39" x2="1508.39" y1="1030.79" y2="1150.12"/>
  <line id="left-margin-Medium-M" style="fill:none;stroke:#00AEEF;stroke-width:0.5;opacity:1.0;" x1="1687.37" x2="1687.37" y1="1030.79" y2="1150.12"/>
  <line id="right-margin-Medium-M" style="fill:none;stroke:#00AEEF;stroke-width:0.5;opacity:1.0;" x1="1805.74" x2="1805.74" y1="1030.79" y2="1150.12"/>
  <line id="left-margin-Semibold-M" style="fill:none;stroke:#00AEEF;stroke-width:0.5;opacity:1.0;" x1="1983.6" x2="1983.6" y1="1030.79" y2="1150.12"/>
  <line id="right-margin-Semibold-M" style="fill:none;stroke:#00AEEF;stroke-width:0.5;opacity:1.0;" x1="2102.94" x2="2102.94" y1="1030.79" y2="1150.12"/>
  <line id="left-margin-Bold-M" style="fill:none;stroke:#00AEEF;stroke-width:0.5;opacity:1.0;" x1="2279.66" x2="2279.66" y1="1030.79" y2="1150.12"/>
  <line id="right-margin-Bold-M" style="fill:none;stroke:#00AEEF;stroke-width:0.5;opacity:1.0;" x1="2400.29" x2="2400.29" y1="1030.79" y2="1150.12"/>
  <line id="left-margin-Heavy-M" style="fill:none;stroke:#00AEEF;stroke-width:0.5;opacity:1.0;" x1="2575.44" x2="2575.44" y1="1030.79" y2="1150.12"/>
  <line id="right-margin-Heavy-M" style="fill:none;stroke:#00AEEF;stroke-width:0.5;opacity:1.0;" x1="2697.94" x2="2697.94" y1="1030.79" y2="1150.12"/>
  <line id="left-margin-Black-M" style="fill:none;stroke:#00AEEF;stroke-width:0.5;opacity:1.0;" x1="2871.32" x2="2871.32" y1="1030.79" y2="1150.12"/>
  <line id="right-margin-Black-M" style="fill:none;stroke:#00AEEF;stroke-width:0.5;opacity:1.0;" x1="2995.48" x2="2995.48" y1="1030.79" y2="1150.12"/>
  <line id="left-margin-Ultralight-L" style="fill:none;stroke:#00AEEF;stroke-width:0.5;opacity:1.0;" x1="487.603" x2="487.603" y1="1460.79" y2="1580.12"/>
  <line id="right-margin-Ultralight-L" style="fill:none;stroke:#00AEEF;stroke-width:0.5;opacity:1.0;" x1="631.819" x2="631.819" y1="1460.79" y2="1580.12"/>
  <line id="left-margin-Thin-L" style="fill:none;stroke:#00AEEF;stroke-width:0.5;opacity:1.0;" x1="783.689" x2="783.689" y1="1460.79" y2="1580.12"/>
  <line id="right-margin-Thin-L" style="fill:none;stroke:#00AEEF;stroke-width:0.5;opacity:1.0;" x1="929.156" x2="929.156" y1="1460.79" y2="1580.12"/>
  <line id="left-margin-Light-L" style="fill:none;stroke:#00AEEF;stroke-width:0.5;opacity:1.0;" x1="1079.18" x2="1079.18" y1="1460.79" y2="1580.12"/>
  <line id="right-margin-Light-L" style="fill:none;stroke:#00AEEF;stroke-width:0.5;opacity:1.0;" x1="1227.09" x2="1227.09" y1="1460.79" y2="1580.12"/>
  <line id="left-margin-Regular-L" style="fill:none;stroke:#00AEEF;stroke-width:0.5;opacity:1.0;" x1="1374.97" x2="1374.97" y1="1460.79" y2="1580.12"/>
  <line id="right-margin-Regular-L" style="fill:none;stroke:#00AEEF;stroke-width:0.5;opacity:1.0;" x1="1524.72" x2="1524.72" y1="1460.79" y2="1580.12"/>
  <line id="left-margin-Medium-L" style="fill:none;stroke:#00AEEF;stroke-width:0.5;opacity:1.0;" x1="1670.87" x2="1670.87" y1="1460.79" y2="1580.12"/>
  <line id="right-margin-Medium-L" style="fill:none;stroke:#00AEEF;stroke-width:0.5;opacity:1.0;" x1="1822.24" x2="1822.24" y1="1460.79" y2="1580.12"/>
  <line id="left-margin-Semibold-L" style="fill:none;stroke:#00AEEF;stroke-width:0.5;opacity:1.0;" x1="1966.97" x2="1966.97" y1="1460.79" y2="1580.12"/>
  <line id="right-margin-Semibold-L" style="fill:none;stroke:#00AEEF;stroke-width:0.5;opacity:1.0;" x1="2119.57" x2="2119.57" y1="1460.79" y2="1580.12"/>
  <line id="left-margin-Bold-L" style="fill:none;stroke:#00AEEF;stroke-width:0.5;opacity:1.0;" x1="2262.87" x2="2262.87" y1="1460.79" y2="1580.12"/>
  <line id="right-margin-Bold-L" style="fill:none;stroke:#00AEEF;stroke-width:0.5;opacity:1.0;" x1="2417.09" x2="2417.09" y1="1460.79" y2="1580.12"/>
  <line id="left-margin-Heavy-L" style="fill:none;stroke:#00AEEF;stroke-width:0.5;opacity:1.0;" x1="2558.4" x2="2558.4" y1="1460.79" y2="1580.12"/>
  <line id="right-margin-Heavy-L" style="fill:none;stroke:#00AEEF;stroke-width:0.5;opacity:1.0;" x1="2714.98" x2="2714.98" y1="1460.79" y2="1580.12"/>
  <line id="left-margin-Black-L" style="fill:none;stroke:#00AEEF;stroke-width:0.5;opacity:1.0;" x1="2854.05" x2="2854.05" y1="1460.79" y2="1580.12"/>
  <line id="right-margin-Black-L" style="fill:none;stroke:#00AEEF;stroke-width:0.5;opacity:1.0;" x1="3012.75" x2="3012.75" y1="1460.79" y2="1580.12"/>
 </g>
 <g id="Symbols">
  <g id="Black-L" transform="matrix(1 0 0 1 2854.05 1556)">
   <path class="hierarchical-0:secondary SFSymbolsPreview4D4D4D" d="M79.3457 32.8613Q90.5762 32.8613 100.757 29.3945Q110.938 25.9277 119.458 19.6777Q127.979 13.4277 134.229 4.90723Q140.479-3.61328 143.945-13.7939Q147.412-23.9746 147.412-35.2051Q147.412-46.4355 143.945-56.6162Q140.479-66.7969 134.204-75.3174Q127.93-83.8379 119.434-90.1123Q110.938-96.3867 100.732-99.8291Q90.5273-103.271 79.2969-103.271Q68.1152-103.271 57.9102-99.8291Q47.7051-96.3867 39.209-90.1123Q30.7129-83.8379 24.4385-75.3174Q18.1641-66.7969 14.7217-56.6162Q11.2793-46.4355 11.2793-35.2051Q11.2793-23.9746 14.7217-13.7939Q18.1641-3.61328 24.4385 4.90723Q30.7129 13.4277 39.2334 19.6777Q47.7539 25.9277 57.9346 29.3945Q68.1152 32.8613 79.3457 32.8613ZM79.3457 12.4023Q71.4355 12.4023 64.2822 10.0098Q57.1289 7.61719 51.1963 3.24707Q45.2637-1.12305 40.8936-7.08008Q36.5234-13.0371 34.1309-20.166Q31.7383-27.2949 31.7383-35.2051Q31.7383-43.1152 34.1309-50.2686Q36.5234-57.4219 40.8936-63.3545Q45.2637-69.2871 51.1963-73.6572Q57.1289-78.0273 64.2578-80.4199Q71.3867-82.8125 79.2969-82.8125Q87.207-82.8125 94.3604-80.4199Q101.514-78.0273 107.471-73.6572Q113.428-69.2871 117.798-63.3545Q122.168-57.4219 124.561-50.2686Q126.953-43.1152 126.953-35.2051Q126.953-27.2949 124.561-20.166Q122.168-13.0371 117.798-7.08008Q113.428-1.12305 107.495 3.24707Q101.562 7.61719 94.4092 10.0098Q87.2559 12.4023 79.3457 12.4023Z"/>
   <path class="hierarchical-1:primary SFSymbolsPreview212121" d="M56.2988-7.86133L102.295-7.86133Q107.324-7.86133 110.059-10.5957Q112.793-13.3301 112.793-18.3594L112.793-51.9043Q112.793-56.9336 110.059-59.6436Q107.324-62.3535 102.295-62.3535L56.2988-62.3535Q51.2695-62.3535 48.5352-59.6436Q45.8008-56.9336 45.8008-51.9043L45.8008-18.3594Q45.8008-13.3301 48.5352-10.5957Q51.2695-7.86133 56.2988-7.86133ZM57.8125-16.8457Q56.3965-16.8457 55.5908-17.6758Q54.7852-18.5059 54.7852-19.9219L54.7852-23.9746L60.2539-28.7109Q62.0117-30.3223 63.8672-30.3223Q65.8691-30.3223 67.7246-28.7109L72.9004-24.0234L85.6445-35.4492Q87.4512-37.1094 89.8438-37.1094Q92.2852-37.1094 93.9941-35.4004L103.809-26.416L103.809-19.9219Q103.809-18.5059 102.93-17.6758Q102.051-16.8457 100.781-16.8457ZM70.2637-34.9609Q67.334-34.9609 65.21-37.085Q63.0859-39.209 63.0859-42.1875Q63.0859-45.1172 65.21-47.2412Q67.334-49.3652 70.2637-49.3652Q73.2422-49.3652 75.3174-47.2412Q77.3926-45.1172 77.3926-42.1875Q77.3926-39.209 75.3174-37.085Q73.2422-34.9609 70.2637-34.9609Z"/>
  </g>
  <g id="Heavy-L" transform="matrix(1 0 0 1 2558.4 1556)">
   <path class="hierarchical-0:secondary SFSymbolsPreview4D4D4D" d="M78.2715 31.7871Q89.3555 31.7871 99.3652 28.3691Q109.375 24.9512 117.749 18.7988Q126.123 12.6465 132.3 4.24805Q138.477-4.15039 141.895-14.1602Q145.312-24.1699 145.312-35.2051Q145.312-46.2402 141.895-56.2744Q138.477-66.3086 132.3-74.6826Q126.123-83.0566 117.749-89.2578Q109.375-95.459 99.3408-98.8525Q89.3066-102.246 78.2227-102.246Q67.2363-102.246 57.2021-98.8525Q47.168-95.459 38.7939-89.2578Q30.4199-83.0566 24.2432-74.6826Q18.0664-66.3086 14.6729-56.2744Q11.2793-46.2402 11.2793-35.2051Q11.2793-24.1699 14.6729-14.1602Q18.0664-4.15039 24.2432 4.24805Q30.4199 12.6465 38.8184 18.7988Q47.2168 24.9512 57.2266 28.3691Q67.2363 31.7871 78.2715 31.7871ZM78.2715 14.0137Q70.1172 14.0137 62.7197 11.5479Q55.3223 9.08203 49.1943 4.56543Q43.0664 0.0488281 38.5498-6.12793Q34.0332-12.3047 31.543-19.6777Q29.0527-27.0508 29.0527-35.2051Q29.0527-43.4082 31.543-50.8057Q34.0332-58.2031 38.5254-64.3311Q43.0176-70.459 49.1699-74.9756Q55.3223-79.4922 62.6953-81.9824Q70.0684-84.4727 78.2227-84.4727Q86.4258-84.4727 93.8232-81.9824Q101.221-79.4922 107.373-74.9756Q113.525-70.459 118.042-64.3311Q122.559-58.2031 125.049-50.8057Q127.539-43.4082 127.539-35.2051Q127.539-27.0508 125.049-19.6777Q122.559-12.3047 118.042-6.12793Q113.525 0.0488281 107.397 4.56543Q101.27 9.08203 93.8721 11.5479Q86.4746 14.0137 78.2715 14.0137Z"/>
   <path class="hierarchical-1:primary SFSymbolsPreview212121" d="M54.3945-7.8125L102.051-7.8125Q106.982-7.8125 109.595-10.4248Q112.207-13.0371 112.207-17.9688L112.207-52.3438Q112.207-57.2266 109.595-59.8389Q106.982-62.4512 102.051-62.4512L54.3945-62.4512Q49.5117-62.4512 46.875-59.8389Q44.2383-57.2266 44.2383-52.3438L44.2383-17.9688Q44.2383-13.0371 46.875-10.4248Q49.5117-7.8125 54.3945-7.8125ZM55.6641-15.8691Q54.1016-15.8691 53.2227-16.7725Q52.3438-17.6758 52.3438-19.1895L52.3438-22.9492L58.5938-28.2715Q60.4492-29.9316 62.3047-29.9316Q64.3555-29.9316 66.3086-28.2715L71.582-23.4863L84.7656-35.2051Q86.7188-36.9629 89.1602-36.9629Q91.6504-36.9629 93.457-35.1562L104.102-25.4395L104.102-19.1895Q104.102-17.6758 103.174-16.7725Q102.246-15.8691 100.83-15.8691ZM68.1641-34.8633Q65.1855-34.8633 63.0615-36.9873Q60.9375-39.1113 60.9375-42.1387Q60.9375-45.0684 63.0615-47.2168Q65.1855-49.3652 68.1641-49.3652Q71.1426-49.3652 73.2422-47.2168Q75.3418-45.0684 75.3418-42.1387Q75.3418-39.1113 73.2422-36.9873Q71.1426-34.8633 68.1641-34.8633Z"/>
  </g>
  <g id="Bold-L" transform="matrix(1 0 0 1 2262.87 1556)">
   <path class="hierarchical-0:secondary SFSymbolsPreview4D4D4D" d="M77.0996 30.6152Q87.9395 30.6152 97.7783 27.2461Q107.617 23.877 115.869 17.8223Q124.121 11.7676 130.176 3.51562Q136.23-4.73633 139.6-14.5752Q142.969-24.4141 142.969-35.2539Q142.969-46.0938 139.6-55.9326Q136.23-65.7715 130.151-73.999Q124.072-82.2266 115.845-88.3057Q107.617-94.3848 97.7539-97.7295Q87.8906-101.074 77.0508-101.074Q66.2598-101.074 56.3965-97.7295Q46.5332-94.3848 38.3301-88.3057Q30.127-82.2266 24.0479-73.999Q17.9688-65.7715 14.624-55.9326Q11.2793-46.0938 11.2793-35.2539Q11.2793-24.4141 14.624-14.5752Q17.9688-4.73633 24.0479 3.51562Q30.127 11.7676 38.3545 17.8223Q46.582 23.877 56.4209 27.2461Q66.2598 30.6152 77.0996 30.6152ZM77.0996 15.8203Q68.6523 15.8203 60.9863 13.2568Q53.3203 10.6934 46.9482 6.00586Q40.5762 1.31836 35.8887-5.07812Q31.2012-11.4746 28.6377-19.1162Q26.0742-26.7578 26.0742-35.2539Q26.0742-43.75 28.6377-51.416Q31.2012-59.082 35.8887-65.4541Q40.5762-71.8262 46.9238-76.4893Q53.2715-81.1523 60.9375-83.7158Q68.6035-86.2793 77.0508-86.2793Q85.5469-86.2793 93.2129-83.7158Q100.879-81.1523 107.275-76.4893Q113.672-71.8262 118.335-65.4541Q122.998-59.082 125.586-51.416Q128.174-43.75 128.174-35.2539Q128.174-26.7578 125.61-19.1162Q123.047-11.4746 118.359-5.07812Q113.672 1.31836 107.3 6.00586Q100.928 10.6934 93.2617 13.2568Q85.5957 15.8203 77.0996 15.8203Z"/>
   <path class="hierarchical-1:primary SFSymbolsPreview212121" d="M52.3438-7.71484L101.807-7.71484Q106.592-7.71484 109.106-10.2295Q111.621-12.7441 111.621-17.4805L111.621-52.832Q111.621-57.5684 109.106-60.0586Q106.592-62.5488 101.807-62.5488L52.3438-62.5488Q47.6074-62.5488 45.0684-60.083Q42.5293-57.6172 42.5293-52.832L42.5293-17.4805Q42.5293-12.7441 45.0684-10.2295Q47.6074-7.71484 52.3438-7.71484ZM53.2715-14.8438Q51.5625-14.8438 50.5859-15.7959Q49.6094-16.748 49.6094-18.4082L49.6094-21.7773L56.7383-27.832Q58.6914-29.541 60.6445-29.541Q62.7441-29.541 64.7461-27.7832L70.2148-22.8516L83.8379-34.9609Q85.8887-36.8164 88.4277-36.8164Q91.0156-36.8164 92.9688-34.9121L104.541-24.4141L104.541-18.4082Q104.541-16.748 103.54-15.7959Q102.539-14.8438 100.879-14.8438ZM65.8691-34.7656Q62.8906-34.7656 60.7178-36.8896Q58.5449-39.0137 58.5449-42.041Q58.5449-45.0195 60.7178-47.1924Q62.8906-49.3652 65.8691-49.3652Q68.8477-49.3652 70.9717-47.1924Q73.0957-45.0195 73.0957-42.041Q73.0957-39.0137 70.9717-36.8896Q68.8477-34.7656 65.8691-34.7656Z"/>
  </g>
  <g id="Semibold-L" transform="matrix(1 0 0 1 1966.97 1556)">
   <path class="hierarchical-0:secondary SFSymbolsPreview4D4D4D" d="M76.2695 29.7852Q86.9629 29.7852 96.6797 26.4648Q106.396 23.1445 114.551 17.1631Q122.705 11.1816 128.687 3.02734Q134.668-5.12695 137.988-14.8438Q141.309-24.5605 141.309-35.2539Q141.309-45.9473 137.988-55.6641Q134.668-65.3809 128.662-73.5107Q122.656-81.6406 114.526-87.6465Q106.396-93.6523 96.6553-96.9727Q86.9141-100.293 76.2207-100.293Q65.5273-100.293 55.8105-96.9727Q46.0938-93.6523 37.9883-87.6465Q29.8828-81.6406 23.877-73.5107Q17.8711-65.3809 14.5752-55.6641Q11.2793-45.9473 11.2793-35.2539Q11.2793-24.5605 14.5996-14.8438Q17.9199-5.12695 23.9014 3.02734Q29.8828 11.1816 38.0127 17.1631Q46.1426 23.1445 55.8594 26.4648Q65.5762 29.7852 76.2695 29.7852ZM76.2695 17.041Q67.627 17.041 59.7656 14.4043Q51.9043 11.7676 45.3857 6.98242Q38.8672 2.19727 34.0576-4.3457Q29.248-10.8887 26.6357-18.7256Q24.0234-26.5625 24.0234-35.2539Q24.0234-43.9453 26.6357-51.8066Q29.248-59.668 34.0332-66.1865Q38.8184-72.7051 45.3369-77.4902Q51.8555-82.2754 59.7168-84.9121Q67.5781-87.5488 76.2207-87.5488Q84.9609-87.5488 92.7979-84.9121Q100.635-82.2754 107.178-77.4902Q113.721-72.7051 118.506-66.1865Q123.291-59.668 125.928-51.8066Q128.564-43.9453 128.564-35.2539Q128.613-26.5625 126.001-18.7256Q123.389-10.8887 118.579-4.3457Q113.77 2.19727 107.227 6.98242Q100.684 11.7676 92.8467 14.4043Q85.0098 17.041 76.2695 17.041Z"/>
   <path class="hierarchical-1:primary SFSymbolsPreview212121" d="M50.8789-7.66602L101.611-7.66602Q106.299-7.66602 108.74-10.1074Q111.182-12.5488 111.182-17.1387L111.182-53.125Q111.182-57.8125 108.74-60.2051Q106.299-62.5977 101.611-62.5977L50.8789-62.5977Q46.1914-62.5977 43.75-60.2051Q41.3086-57.8125 41.3086-53.125L41.3086-17.1387Q41.3086-12.5 43.75-10.083Q46.1914-7.66602 50.8789-7.66602ZM51.6113-14.0625Q49.7559-14.0625 48.7305-15.0879Q47.7051-16.1133 47.7051-17.8711L47.7051-20.9961L55.4199-27.4902Q57.4707-29.248 59.4238-29.248Q61.5723-29.248 63.623-27.4414L69.1895-22.4121L83.1543-34.7656Q85.3027-36.6699 87.8418-36.6699Q90.4785-36.6699 92.5293-34.7168L104.736-23.6328L104.736-17.8711Q104.736-16.1133 103.687-15.0879Q102.637-14.0625 100.879-14.0625ZM64.2578-34.668Q61.2305-34.668 59.0576-36.8164Q56.8848-38.9648 56.8848-41.9922Q56.8848-44.9707 59.0576-47.1436Q61.2305-49.3164 64.2578-49.3164Q67.2363-49.3164 69.3604-47.1436Q71.4844-44.9707 71.4844-41.9922Q71.4844-38.9648 69.3604-36.8164Q67.2363-34.668 64.2578-34.668Z"/>
  </g>
  <g id="Medium-L" transform="matrix(1 0 0 1 1670.87 1556)">
   <path class="hierarchical-0:secondary SFSymbolsPreview4D4D4D" d="M75.6836 29.1504Q86.2305 29.1504 95.8496 25.8545Q105.469 22.5586 113.55 16.626Q121.631 10.6934 127.563 2.63672Q133.496-5.41992 136.792-15.0635Q140.088-24.707 140.088-35.2539Q140.088-45.8496 136.792-55.4688Q133.496-65.0879 127.539-73.1445Q121.582-81.2012 113.525-87.1582Q105.469-93.1152 95.8252-96.3867Q86.1816-99.6582 75.6348-99.6582Q65.0391-99.6582 55.4199-96.3867Q45.8008-93.1152 37.7441-87.1582Q29.6875-81.2012 23.7549-73.1445Q17.8223-65.0879 14.5508-55.4688Q11.2793-45.8496 11.2793-35.2539Q11.2793-24.707 14.5508-15.0635Q17.8223-5.41992 23.7549 2.63672Q29.6875 10.6934 37.7686 16.626Q45.8496 22.5586 55.4688 25.8545Q65.0879 29.1504 75.6836 29.1504ZM75.6836 18.0176Q66.8457 18.0176 58.8379 15.332Q50.8301 12.6465 44.2139 7.76367Q37.5977 2.88086 32.6904-3.78418Q27.7832-10.4492 25.1221-18.4326Q22.4609-26.416 22.4609-35.2539Q22.4609-44.1406 25.1221-52.124Q27.7832-60.1074 32.666-66.748Q37.5488-73.3887 44.165-78.2715Q50.7812-83.1543 58.7891-85.8154Q66.7969-88.4766 75.6348-88.4766Q84.4727-88.4766 92.4805-85.8154Q100.488-83.1543 107.129-78.2715Q113.77-73.3887 118.652-66.748Q123.535-60.1074 126.221-52.124Q128.906-44.1406 128.906-35.2539Q128.955-26.416 126.294-18.4326Q123.633-10.4492 118.726-3.78418Q113.818 2.88086 107.178 7.76367Q100.537 12.6465 92.5293 15.332Q84.5215 18.0176 75.6836 18.0176Z"/>
   <path class="hierarchical-1:primary SFSymbolsPreview212121" d="M49.7559-7.61719L101.416-7.61719Q106.055-7.61719 108.447-9.98535Q110.84-12.3535 110.84-16.8945L110.84-53.3691Q110.84-57.959 108.447-60.3271Q106.055-62.6953 101.416-62.6953L49.7559-62.6953Q45.166-62.6953 42.7734-60.3516Q40.3809-58.0078 40.3809-53.3691L40.3809-16.8945Q40.3809-12.3047 42.7734-9.96094Q45.166-7.61719 49.7559-7.61719ZM50.293-13.5254Q48.3887-13.5254 47.3145-14.5752Q46.2402-15.625 46.2402-17.4316L46.2402-20.3613L54.4434-27.2461Q56.4941-29.0527 58.5449-29.0527Q60.6934-29.0527 62.793-27.1973L68.4082-22.1191L82.6172-34.668Q84.8145-36.5723 87.4512-36.5723Q90.0879-36.5723 92.2363-34.6191L104.932-23.0957L104.932-17.4316Q104.932-15.625 103.833-14.5752Q102.734-13.5254 100.879-13.5254ZM62.9883-34.6191Q59.9609-34.6191 57.7637-36.7432Q55.5664-38.8672 55.5664-41.9434Q55.5664-44.9707 57.7637-47.1436Q59.9609-49.3164 62.9883-49.3164Q65.9668-49.3164 68.1396-47.1436Q70.3125-44.9707 70.3125-41.9434Q70.3125-38.8672 68.1396-36.7432Q65.9668-34.6191 62.9883-34.6191Z"/>
  </g>
  <g id="Regular-L" transform="matrix(1 0 0 1 1374.97 1556)">
   <path class="hierarchical-0:secondary SFSymbolsPreview4D4D4D" d="M74.8535 28.3203Q85.3027 28.3203 94.7998 25.0732Q104.297 21.8262 112.256 15.9668Q120.215 10.1074 126.099 2.14844Q131.982-5.81055 135.229-15.332Q138.477-24.8535 138.477-35.2539Q138.477-45.7031 135.229-55.2002Q131.982-64.6973 126.099-72.6562Q120.215-80.6152 112.256-86.499Q104.297-92.3828 94.7754-95.6299Q85.2539-98.877 74.8047-98.877Q64.3555-98.877 54.8584-95.6299Q45.3613-92.3828 37.4268-86.499Q29.4922-80.6152 23.6084-72.6562Q17.7246-64.6973 14.502-55.2002Q11.2793-45.7031 11.2793-35.2539Q11.2793-24.8535 14.5264-15.332Q17.7734-5.81055 23.6328 2.14844Q29.4922 10.1074 37.4512 15.9668Q45.4102 21.8262 54.9072 25.0732Q64.4043 28.3203 74.8535 28.3203ZM74.8535 19.2383Q65.8203 19.2383 57.6416 16.4795Q49.4629 13.7207 42.6758 8.74023Q35.8887 3.75977 30.8838-3.05176Q25.8789-9.86328 23.1445-18.042Q20.4102-26.2207 20.4102-35.2539Q20.4102-44.3359 23.1445-52.5146Q25.8789-60.6934 30.8594-67.5049Q35.8398-74.3164 42.627-79.2969Q49.4141-84.2773 57.5928-87.0117Q65.7715-89.7461 74.8047-89.7461Q83.8867-89.7461 92.0654-87.0117Q100.244-84.2773 107.056-79.2969Q113.867-74.3164 118.848-67.5049Q123.828-60.6934 126.587-52.5146Q129.346-44.3359 129.346-35.2539Q129.395-26.2207 126.66-18.042Q123.926-9.86328 118.921-3.05176Q113.916 3.75977 107.104 8.74023Q100.293 13.7207 92.1143 16.4795Q83.9355 19.2383 74.8535 19.2383Z"/>
   <path class="hierarchical-1:primary SFSymbolsPreview212121" d="M48.3398-7.56836L101.27-7.56836Q105.811-7.56836 108.105-9.86328Q110.4-12.1582 110.4-16.6016L110.4-53.7109Q110.4-58.2031 108.105-60.4736Q105.811-62.7441 101.27-62.7441L48.3398-62.7441Q43.8477-62.7441 41.5283-60.498Q39.209-58.252 39.209-53.7109L39.209-16.6016Q39.209-12.1094 41.5283-9.83887Q43.8477-7.56836 48.3398-7.56836ZM48.6816-12.793Q46.6309-12.793 45.5078-13.8916Q44.3848-14.9902 44.3848-16.8945L44.3848-19.5801L53.1738-26.9043Q55.3223-28.7598 57.373-28.7598Q59.5703-28.7598 61.7188-26.8555L67.4316-21.6797L81.9824-34.4727Q84.2773-36.4746 86.9141-36.4746Q89.6484-36.4746 91.8457-34.4238L105.176-22.3633L105.176-16.8945Q105.176-14.9902 104.053-13.8916Q102.93-12.793 100.928-12.793ZM61.4258-34.5215Q58.3496-34.5215 56.1523-36.6699Q53.9551-38.8184 53.9551-41.8945Q53.9551-44.9219 56.1523-47.1191Q58.3496-49.3164 61.4258-49.3164Q64.4043-49.3164 66.5771-47.1191Q68.75-44.9219 68.75-41.8945Q68.75-38.8184 66.5771-36.6699Q64.4043-34.5215 61.4258-34.5215Z"/>
  </g>
  <g id="Light-L" transform="matrix(1 0 0 1 1079.18 1556)">
   <path class="hierarchical-0:secondary SFSymbolsPreview4D4D4D" d="M73.9258 27.3926Q84.2285 27.3926 93.6035 24.1943Q102.979 20.9961 110.815 15.2344Q118.652 9.47266 124.438 1.63574Q130.225-6.20117 133.423-15.5762Q136.621-24.9512 136.621-35.2539Q136.621-45.5566 133.423-54.9316Q130.225-64.3066 124.438-72.1436Q118.652-79.9805 110.815-85.7666Q102.979-91.5527 93.6035-94.751Q84.2285-97.9492 73.877-97.9492Q63.5742-97.9492 54.2236-94.751Q44.873-91.5527 37.0361-85.7666Q29.1992-79.9805 23.4131-72.1436Q17.627-64.3066 14.4531-54.9316Q11.2793-45.5566 11.2793-35.2539Q11.2793-24.9512 14.4775-15.5762Q17.6758-6.20117 23.4375 1.63574Q29.1992 9.47266 37.0361 15.2344Q44.873 20.9961 54.248 24.1943Q63.623 27.3926 73.9258 27.3926ZM73.9258 20.5078Q64.6973 20.5078 56.3232 17.6758Q47.9492 14.8438 40.9912 9.74121Q34.0332 4.63867 28.9307-2.31934Q23.8281-9.27734 21.0205-17.6514Q18.2129-26.0254 18.2129-35.2539Q18.2129-44.5312 21.0205-52.8809Q23.8281-61.2305 28.9307-68.2129Q34.0332-75.1953 40.9912-80.2979Q47.9492-85.4004 56.2988-88.208Q64.6484-91.0156 73.877-91.0156Q83.1543-91.0156 91.5283-88.208Q99.9023-85.4004 106.86-80.2979Q113.818-75.1953 118.945-68.2129Q124.072-61.2305 126.88-52.8809Q129.688-44.5312 129.688-35.2539Q129.736-26.0254 126.929-17.6514Q124.121-9.27734 118.994-2.31934Q113.867 4.63867 106.909 9.74121Q99.9512 14.8438 91.5771 17.6758Q83.2031 20.5078 73.9258 20.5078Z"/>
   <path class="hierarchical-1:primary SFSymbolsPreview212121" d="M47.168-8.00781L100.684-8.00781Q104.932-8.00781 107.104-10.2051Q109.277-12.4023 109.277-16.5527L109.277-53.8086Q109.277-58.0566 107.104-60.2295Q104.932-62.4023 100.684-62.4023L47.168-62.4023Q42.9199-62.4023 40.7227-60.2539Q38.5254-58.1055 38.5254-53.8086L38.5254-16.5527Q38.5254-12.3535 40.7227-10.1807Q42.9199-8.00781 47.168-8.00781ZM47.6074-12.5Q45.4102-12.5 44.1895-13.6719Q42.9688-14.8438 42.9688-16.7969L42.9688-19.4336L52.1973-27.0508Q54.3945-28.9551 56.3965-28.9551Q58.5938-28.9551 60.791-27.002L66.4062-21.875L81.0059-34.5703Q83.3984-36.6699 86.0352-36.6699Q88.7695-36.6699 91.1133-34.5215L104.834-22.2656L104.834-16.7969Q104.834-14.8438 103.613-13.6719Q102.393-12.5 100.244-12.5ZM60.0098-34.668Q56.9336-34.668 54.7852-36.792Q52.6367-38.916 52.6367-41.9922Q52.6367-44.9707 54.7852-47.1436Q56.9336-49.3164 60.0098-49.3164Q62.9395-49.3164 65.0879-47.1436Q67.2363-44.9707 67.2363-41.9922Q67.2363-38.916 65.0879-36.792Q62.9395-34.668 60.0098-34.668Z"/>
  </g>
  <g id="Thin-L" transform="matrix(1 0 0 1 783.689 1556)">
   <path class="hierarchical-0:secondary SFSymbolsPreview4D4D4D" d="M72.7051 26.1719Q82.8613 26.1719 92.041 23.0469Q101.221 19.9219 108.911 14.2822Q116.602 8.64258 122.266 0.952148Q127.93-6.73828 131.055-15.9424Q134.18-25.1465 134.18-35.2539Q134.18-45.4102 131.055-54.5898Q127.93-63.7695 122.29-71.46Q116.65-79.1504 108.936-84.8145Q101.221-90.4785 92.0166-93.6035Q82.8125-96.7285 72.7051-96.7285Q62.5488-96.7285 53.3691-93.6035Q44.1895-90.4785 36.499-84.8145Q28.8086-79.1504 23.1689-71.46Q17.5293-63.7695 14.4043-54.5898Q11.2793-45.4102 11.2793-35.2539Q11.2793-25.1465 14.4043-15.9424Q17.5293-6.73828 23.1689 0.952148Q28.8086 8.64258 36.5234 14.2822Q44.2383 19.9219 53.418 23.0469Q62.5977 26.1719 72.7051 26.1719ZM72.7051 22.168Q63.2324 22.168 54.6143 19.2627Q45.9961 16.3574 38.8184 11.084Q31.6406 5.81055 26.3428-1.36719Q21.0449-8.54492 18.1641-17.1631Q15.2832-25.7812 15.2832-35.2539Q15.2832-44.7754 18.1641-53.3936Q21.0449-62.0117 26.3428-69.1895Q31.6406-76.3672 38.8184-81.6406Q45.9961-86.9141 54.5898-89.8193Q63.1836-92.7246 72.7051-92.7246Q82.2266-92.7246 90.8203-89.8193Q99.4141-86.9141 106.616-81.6406Q113.818-76.3672 119.092-69.1895Q124.365-62.0117 127.271-53.3936Q130.176-44.7754 130.176-35.2539Q130.176-25.7812 127.271-17.1631Q124.365-8.54492 119.092-1.36719Q113.818 5.81055 106.641 11.084Q99.4629 16.3574 90.8447 19.2627Q82.2266 22.168 72.7051 22.168Z"/>
   <path class="hierarchical-1:primary SFSymbolsPreview212121" d="M45.5566-8.59375L99.8535-8.59375Q103.711-8.59375 105.762-10.6689Q107.812-12.7441 107.812-16.5527L107.812-53.9551Q107.812-57.8613 105.762-59.8877Q103.711-61.9141 99.8535-61.9141L45.5566-61.9141Q41.6504-61.9141 39.624-59.9365Q37.5977-57.959 37.5977-53.9551L37.5977-16.5527Q37.5977-12.6465 39.624-10.6201Q41.6504-8.59375 45.5566-8.59375ZM46.1426-12.1094Q43.75-12.1094 42.4072-13.4033Q41.0645-14.6973 41.0645-16.6992L41.0645-19.2383L50.8789-27.2461Q53.1738-29.1992 55.127-29.1992Q57.3242-29.1992 59.5215-27.1484L65.0391-22.1191L79.6875-34.668Q82.2266-36.9141 84.8633-36.9141Q87.5488-36.9141 90.1367-34.668L104.297-22.168L104.297-16.6992Q104.297-14.6973 102.954-13.4033Q101.611-12.1094 99.2676-12.1094ZM58.0566-34.9121Q55.0781-34.9121 52.9541-37.0117Q50.8301-39.1113 50.8301-42.0898Q50.8301-45.0195 52.9541-47.1436Q55.0781-49.2676 58.0566-49.2676Q60.9863-49.2676 63.0859-47.1436Q65.1855-45.0195 65.1855-42.0898Q65.1855-39.1113 63.0859-37.0117Q60.9863-34.9121 58.0566-34.9121Z"/>
  </g>
  <g id="Ultralight-L" transform="matrix(1 0 0 1 487.603 1556)">
   <path class="hierarchical-0:secondary SFSymbolsPreview4D4D4D" d="M72.0703 25.5371Q82.1289 25.5371 91.2354 22.4609Q100.342 19.3848 107.935 13.7939Q115.527 8.20312 121.143 0.585938Q126.758-7.03125 129.858-16.1133Q132.959-25.1953 132.959-35.2539Q132.959-45.3125 129.858-54.4189Q126.758-63.5254 121.167-71.1182Q115.576-78.7109 107.959-84.3262Q100.342-89.9414 91.2354-93.0176Q82.1289-96.0938 72.0703-96.0938Q62.0605-96.0938 52.9541-93.0176Q43.8477-89.9414 36.2305-84.3262Q28.6133-78.7109 23.0225-71.1182Q17.4316-63.5254 14.3555-54.4189Q11.2793-45.3125 11.2793-35.2539Q11.2793-25.1953 14.3555-16.1133Q17.4316-7.03125 23.0225 0.585938Q28.6133 8.20312 36.2305 13.7939Q43.8477 19.3848 52.9541 22.4609Q62.0605 25.5371 72.0703 25.5371ZM72.0703 23.0469Q62.4512 23.0469 53.7109 20.0928Q44.9707 17.1387 37.6709 11.792Q30.3711 6.44531 25.0244-0.854492Q19.6777-8.1543 16.7236-16.8945Q13.7695-25.6348 13.7695-35.2539Q13.7695-44.9219 16.7236-53.6377Q19.6777-62.3535 25.0244-69.6533Q30.3711-76.9531 37.6953-82.3242Q45.0195-87.6953 53.7354-90.6494Q62.4512-93.6035 72.0703-93.6035Q81.7383-93.6035 90.4785-90.6494Q99.2188-87.6953 106.494-82.3242Q113.77-76.9531 119.141-69.6533Q124.512-62.3535 127.466-53.6377Q130.42-44.9219 130.42-35.2539Q130.371-25.6348 127.441-16.8945Q124.512-8.1543 119.141-0.854492Q113.77 6.44531 106.494 11.792Q99.2188 17.1387 90.4785 20.0928Q81.7383 23.0469 72.0703 23.0469Z"/>
   <path class="hierarchical-1:primary SFSymbolsPreview212121" d="M44.7266-8.88672L99.4141-8.88672Q103.076-8.88672 105.054-10.8887Q107.031-12.8906 107.031-16.5039L107.031-54.0527Q107.031-57.7637 105.054-59.7412Q103.076-61.7188 99.4141-61.7188L44.7266-61.7188Q41.0156-61.7188 39.0625-59.79Q37.1094-57.8613 37.1094-54.0527L37.1094-16.5039Q37.1094-12.793 39.0625-10.8398Q41.0156-8.88672 44.7266-8.88672ZM45.3613-11.9141Q42.9199-11.9141 41.5039-13.2568Q40.0879-14.5996 40.0879-16.6504L40.0879-19.1406L50.1953-27.3438Q52.5391-29.2969 54.4434-29.2969Q56.6406-29.2969 58.8867-27.2461L64.3555-22.2168L78.9551-34.7656Q81.6406-37.0117 84.2773-37.0117Q86.9141-37.0117 89.5996-34.7656L104.053-22.1191L104.053-16.6504Q104.053-14.5996 102.637-13.2568Q101.221-11.9141 98.7793-11.9141ZM57.0801-35.0098Q54.1016-35.0098 52.002-37.085Q49.9023-39.1602 49.9023-42.1387Q49.9023-45.0684 52.002-47.168Q54.1016-49.2676 57.0801-49.2676Q59.9609-49.2676 62.0361-47.168Q64.1113-45.0684 64.1113-42.1387Q64.1113-39.1602 62.0361-37.085Q59.9609-35.0098 57.0801-35.0098Z"/>
  </g>
  <g id="Black-M" transform="matrix(1 0 0 1 2871.32 1126)">
   <path class="hierarchical-0:secondary SFSymbolsPreview4D4D4D" d="M62.0605 18.1152Q73.0957 18.1152 82.7637 13.9648Q92.4316 9.81445 99.7559 2.46582Q107.08-4.88281 111.255-14.5264Q115.43-24.1699 115.43-35.2051Q115.43-46.2402 111.255-55.8838Q107.08-65.5273 99.7559-72.876Q92.4316-80.2246 82.7637-84.375Q73.0957-88.5254 62.0605-88.5254Q51.0742-88.5254 41.4062-84.375Q31.7383-80.2246 24.3896-72.876Q17.041-65.5273 12.8906-55.8838Q8.74023-46.2402 8.74023-35.2051Q8.74023-24.1699 12.8906-14.5264Q17.041-4.88281 24.3896 2.46582Q31.7383 9.81445 41.4062 13.9648Q51.0742 18.1152 62.0605 18.1152ZM62.0605 0.732422Q54.6387 0.732422 48.1201-2.05078Q41.6016-4.83398 36.6455-9.76562Q31.6895-14.6973 28.9062-21.2158Q26.123-27.7344 26.123-35.2051Q26.123-42.6758 28.9062-49.1943Q31.6895-55.7129 36.6455-60.6445Q41.6016-65.5762 48.1201-68.3594Q54.6387-71.1426 62.0605-71.1426Q69.5312-71.1426 76.0498-68.3594Q82.5684-65.5762 87.5-60.6445Q92.4316-55.7129 95.2393-49.1943Q98.0469-42.6758 98.0469-35.2051Q98.0469-27.7344 95.2393-21.2158Q92.4316-14.6973 87.5-9.76562Q82.5684-4.83398 76.0498-2.05078Q69.5312 0.732422 62.0605 0.732422Z"/>
   <path class="hierarchical-1:primary SFSymbolsPreview212121" d="M44.873-14.209L79.2969-14.209Q83.2031-14.209 85.376-16.4062Q87.5488-18.6035 87.5488-22.5098L87.5488-47.8027Q87.5488-51.709 85.376-53.8818Q83.2031-56.0547 79.2969-56.0547L44.873-56.0547Q40.9668-56.0547 38.7939-53.8818Q36.6211-51.709 36.6211-47.8027L36.6211-22.5098Q36.6211-18.6035 38.7939-16.4062Q40.9668-14.209 44.873-14.209ZM46.2891-21.7285Q45.2637-21.7285 44.7021-22.3389Q44.1406-22.9492 44.1406-23.9746L44.1406-27.3438L47.8516-30.5664Q49.1211-31.7871 50.4883-31.7871Q52.002-31.7871 53.418-30.5664L57.2754-27.0996L66.7969-35.6445Q68.1641-36.8652 69.9707-36.8652Q71.7773-36.8652 73.0469-35.5957L80.0293-29.1504L80.0293-23.9746Q80.0293-22.9492 79.3945-22.3389Q78.7598-21.7285 77.8809-21.7285ZM55.8105-35.2051Q53.5156-35.2051 51.9287-36.8164Q50.3418-38.4277 50.3418-40.7227Q50.3418-42.9199 51.9287-44.5557Q53.5156-46.1914 55.8105-46.1914Q58.0566-46.1914 59.6436-44.5557Q61.2305-42.9199 61.2305-40.7227Q61.2305-38.4277 59.6436-36.8164Q58.0566-35.2051 55.8105-35.2051Z"/>
  </g>
  <g id="Heavy-M" transform="matrix(1 0 0 1 2575.44 1126)">
   <path class="hierarchical-0:secondary SFSymbolsPreview4D4D4D" d="M61.2305 17.2852Q72.0703 17.2852 81.5918 13.1836Q91.1133 9.08203 98.3154 1.85547Q105.518-5.37109 109.644-14.8682Q113.77-24.3652 113.77-35.2051Q113.77-46.0449 109.644-55.542Q105.518-65.0391 98.3154-72.29Q91.1133-79.541 81.5918-83.6182Q72.0703-87.6953 61.2305-87.6953Q50.4395-87.6953 40.918-83.6182Q31.3965-79.541 24.1699-72.29Q16.9434-65.0391 12.8418-55.542Q8.74023-46.0449 8.74023-35.2051Q8.74023-24.3652 12.8418-14.8682Q16.9434-5.37109 24.1699 1.85547Q31.3965 9.08203 40.918 13.1836Q50.4395 17.2852 61.2305 17.2852ZM61.2305 2.05078Q53.5156 2.05078 46.7529-0.854492Q39.9902-3.75977 34.8633-8.8623Q29.7363-13.9648 26.8555-20.7275Q23.9746-27.4902 23.9746-35.2051Q23.9746-42.9688 26.8555-49.7314Q29.7363-56.4941 34.8633-61.5967Q39.9902-66.6992 46.7529-69.5801Q53.5156-72.4609 61.2305-72.4609Q68.9453-72.4609 75.708-69.5801Q82.4707-66.6992 87.5977-61.5967Q92.7246-56.4941 95.6299-49.7314Q98.5352-42.9688 98.5352-35.2051Q98.5352-27.4902 95.6299-20.7275Q92.7246-13.9648 87.6221-8.8623Q82.5195-3.75977 75.7568-0.854492Q68.9941 2.05078 61.2305 2.05078Z"/>
   <path class="hierarchical-1:primary SFSymbolsPreview212121" d="M43.3105-14.0625L79.1992-14.0625Q83.0566-14.0625 85.1562-16.1621Q87.2559-18.2617 87.2559-22.1191L87.2559-48.1934Q87.2559-52.0508 85.1562-54.126Q83.0566-56.2012 79.1992-56.2012L43.3105-56.2012Q39.4531-56.2012 37.3535-54.126Q35.2539-52.0508 35.2539-48.1934L35.2539-22.1191Q35.2539-18.2617 37.3535-16.1621Q39.4531-14.0625 43.3105-14.0625ZM44.4336-20.8496Q43.3105-20.8496 42.6758-21.5088Q42.041-22.168 42.041-23.291L42.041-26.3672L46.4355-30.127Q47.7539-31.3965 49.2188-31.3965Q50.7812-31.3965 52.2461-30.127L56.25-26.5137L66.1621-35.4004Q67.627-36.6699 69.4824-36.6699Q71.3379-36.6699 72.7051-35.3516L80.4688-28.2227L80.4688-23.291Q80.4688-22.168 79.7852-21.5088Q79.1016-20.8496 78.0762-20.8496ZM54.0527-35.0586Q51.7578-35.0586 50.1465-36.6943Q48.5352-38.3301 48.5352-40.625Q48.5352-42.8711 50.1465-44.5312Q51.7578-46.1914 54.0527-46.1914Q56.3477-46.1914 57.959-44.5312Q59.5703-42.8711 59.5703-40.625Q59.5703-38.3301 57.959-36.6943Q56.3477-35.0586 54.0527-35.0586Z"/>
  </g>
  <g id="Bold-M" transform="matrix(1 0 0 1 2279.66 1126)">
   <path class="hierarchical-0:secondary SFSymbolsPreview4D4D4D" d="M60.3027 16.3574Q70.9473 16.3574 80.2734 12.3291Q89.5996 8.30078 96.7041 1.17188Q103.809-5.95703 107.861-15.2832Q111.914-24.6094 111.914-35.2539Q111.914-45.8496 107.861-55.1758Q103.809-64.502 96.7041-71.6309Q89.5996-78.7598 80.249-82.7881Q70.8984-86.8164 60.3027-86.8164Q49.707-86.8164 40.3564-82.7881Q31.0059-78.7598 23.9014-71.6309Q16.7969-64.502 12.7686-55.1758Q8.74023-45.8496 8.74023-35.2539Q8.74023-24.6094 12.7686-15.2832Q16.7969-5.95703 23.9258 1.17188Q31.0547 8.30078 40.3809 12.3291Q49.707 16.3574 60.3027 16.3574ZM60.3027 3.51562Q52.2949 3.51562 45.2637 0.488281Q38.2324-2.53906 32.9102-7.83691Q27.5879-13.1348 24.6094-20.166Q21.6309-27.1973 21.6309-35.2539Q21.6309-43.3105 24.6094-50.3174Q27.5879-57.3242 32.9102-62.6465Q38.2324-67.9688 45.2393-70.9717Q52.2461-73.9746 60.3027-73.9746Q68.3594-73.9746 75.3662-70.9717Q82.373-67.9688 87.6953-62.6465Q93.0176-57.3242 96.0449-50.3174Q99.0723-43.3105 99.0723-35.2539Q99.0723-27.1973 96.0693-20.166Q93.0664-13.1348 87.7441-7.83691Q82.4219-2.53906 75.3906 0.488281Q68.3594 3.51562 60.3027 3.51562Z"/>
   <path class="hierarchical-1:primary SFSymbolsPreview212121" d="M41.5527-13.8672L79.1016-13.8672Q82.9102-13.8672 84.9121-15.8936Q86.9141-17.9199 86.9141-21.6797L86.9141-48.6816Q86.9141-52.4414 84.9121-54.4189Q82.9102-56.3965 79.1016-56.3965L41.5527-56.3965Q37.793-56.3965 35.7666-54.4189Q33.7402-52.4414 33.7402-48.6816L33.7402-21.6797Q33.7402-17.9199 35.7666-15.8936Q37.793-13.8672 41.5527-13.8672ZM42.3828-19.873Q41.1133-19.873 40.4297-20.5811Q39.7461-21.2891 39.7461-22.5098L39.7461-25.293L44.873-29.6387Q46.2891-30.957 47.8027-30.957Q49.4141-30.957 50.9277-29.6387L55.127-25.8789L65.4785-35.1074Q67.041-36.4746 68.9453-36.4746Q70.8984-36.4746 72.3633-35.0586L80.957-27.2461L80.957-22.5098Q80.957-21.2891 80.2246-20.5811Q79.4922-19.873 78.3203-19.873ZM52.1484-34.9121Q49.8047-34.9121 48.1689-36.5479Q46.5332-38.1836 46.5332-40.5762Q46.5332-42.8223 48.1689-44.5068Q49.8047-46.1914 52.1484-46.1914Q54.4922-46.1914 56.1279-44.5068Q57.7637-42.8223 57.7637-40.5762Q57.7637-38.1836 56.1279-36.5479Q54.4922-34.9121 52.1484-34.9121Z"/>
  </g>
  <g id="Semibold-M" transform="matrix(1 0 0 1 1983.6 1126)">
   <path class="hierarchical-0:secondary SFSymbolsPreview4D4D4D" d="M59.668 15.6738Q70.1172 15.6738 79.3457 11.6943Q88.5742 7.71484 95.6055 0.683594Q102.637-6.34766 106.616-15.5518Q110.596-24.7559 110.596-35.2539Q110.596-45.7031 106.616-54.9072Q102.637-64.1113 95.6055-71.1426Q88.5742-78.1738 79.3457-82.1777Q70.1172-86.1816 59.6191-86.1816Q49.1699-86.1816 39.9658-82.1777Q30.7617-78.1738 23.7305-71.1426Q16.6992-64.1113 12.7197-54.9072Q8.74023-45.7031 8.74023-35.2539Q8.74023-24.7559 12.7197-15.5518Q16.6992-6.34766 23.7305 0.683594Q30.7617 7.71484 39.9902 11.6943Q49.2188 15.6738 59.668 15.6738ZM59.668 4.49219Q51.416 4.49219 44.2139 1.41602Q37.0117-1.66016 31.543-7.10449Q26.0742-12.5488 23.0225-19.751Q19.9707-26.9531 19.9707-35.2539Q19.9707-43.5059 23.0225-50.708Q26.0742-57.9102 31.5186-63.3789Q36.9629-68.8477 44.165-71.8994Q51.3672-74.9512 59.6191-74.9512Q67.9199-74.9512 75.1221-71.8994Q82.3242-68.8477 87.7686-63.3789Q93.2129-57.9102 96.3135-50.708Q99.4141-43.5059 99.4141-35.2539Q99.4141-26.9531 96.3379-19.751Q93.2617-12.5488 87.8174-7.10449Q82.373-1.66016 75.1465 1.41602Q67.9199 4.49219 59.668 4.49219Z"/>
   <path class="hierarchical-1:primary SFSymbolsPreview212121" d="M40.332-13.7207L79.0039-13.7207Q82.7637-13.7207 84.7168-15.6738Q86.6699-17.627 86.6699-21.3379L86.6699-48.9746Q86.6699-52.6855 84.7168-54.6143Q82.7637-56.543 79.0039-56.543L40.332-56.543Q36.5723-56.543 34.6191-54.6143Q32.666-52.6855 32.666-48.9746L32.666-21.3379Q32.666-17.627 34.6191-15.6738Q36.5723-13.7207 40.332-13.7207ZM40.918-19.1406Q39.5996-19.1406 38.8428-19.9219Q38.0859-20.7031 38.0859-21.9727L38.0859-24.5117L43.75-29.2969Q45.2148-30.6152 46.7773-30.6152Q48.4375-30.6152 50-29.248L54.2969-25.3906L64.9902-34.9121Q66.5527-36.3281 68.5547-36.3281Q70.5566-36.3281 72.0703-34.8633L81.25-26.5137L81.25-21.9727Q81.25-20.7031 80.4688-19.9219Q79.6875-19.1406 78.418-19.1406ZM50.7812-34.7656Q48.4375-34.7656 46.7529-36.4258Q45.0684-38.0859 45.0684-40.4785Q45.0684-42.7734 46.7529-44.458Q48.4375-46.1426 50.7812-46.1426Q53.125-46.1426 54.7852-44.458Q56.4453-42.7734 56.4453-40.4785Q56.4453-38.0859 54.7852-36.4258Q53.125-34.7656 50.7812-34.7656Z"/>
  </g>
  <g id="Medium-M" transform="matrix(1 0 0 1 1687.37 1126)">
   <path class="hierarchical-0:secondary SFSymbolsPreview4D4D4D" d="M59.1797 15.1855Q69.5312 15.1855 78.6621 11.2305Q87.793 7.27539 94.751 0.317383Q101.709-6.64062 105.664-15.7715Q109.619-24.9023 109.619-35.2539Q109.619-45.6055 105.664-54.7363Q101.709-63.8672 94.751-70.8252Q87.793-77.7832 78.6377-81.7383Q69.4824-85.6934 59.1309-85.6934Q48.7793-85.6934 39.6484-81.7383Q30.5176-77.7832 23.584-70.8252Q16.6504-63.8672 12.6953-54.7363Q8.74023-45.6055 8.74023-35.2539Q8.74023-24.9023 12.6953-15.7715Q16.6504-6.64062 23.6084 0.317383Q30.5664 7.27539 39.6973 11.2305Q48.8281 15.1855 59.1797 15.1855ZM59.1797 5.27344Q50.7324 5.27344 43.4082 2.12402Q36.084-1.02539 30.5176-6.5918Q24.9512-12.1582 21.8262-19.4824Q18.7012-26.8066 18.7012-35.2539Q18.7012-43.7012 21.8262-51.0254Q24.9512-58.3496 30.4932-63.916Q36.0352-69.4824 43.3838-72.6074Q50.7324-75.7324 59.1309-75.7324Q67.5781-75.7324 74.9023-72.6074Q82.2266-69.4824 87.8174-63.916Q93.4082-58.3496 96.5576-51.0254Q99.707-43.7012 99.707-35.2539Q99.707-26.8066 96.582-19.4824Q93.457-12.1582 87.8906-6.5918Q82.3242-1.02539 74.9756 2.12402Q67.627 5.27344 59.1797 5.27344Z"/>
   <path class="hierarchical-1:primary SFSymbolsPreview212121" d="M39.3555-13.6719L78.9062-13.6719Q82.6172-13.6719 84.5215-15.5518Q86.4258-17.4316 86.4258-21.0938L86.4258-49.2188Q86.4258-52.8809 84.5215-54.7363Q82.6172-56.5918 78.9062-56.5918L39.3555-56.5918Q35.6445-56.5918 33.7402-54.7363Q31.8359-52.8809 31.8359-49.2188L31.8359-21.0938Q31.8359-17.4316 33.7402-15.5518Q35.6445-13.6719 39.3555-13.6719ZM39.7949-18.6523Q38.3789-18.6523 37.5977-19.4336Q36.8164-20.2148 36.8164-21.582L36.8164-23.9258L42.8711-29.0527Q44.4336-30.3711 45.9961-30.3711Q47.6562-30.3711 49.2676-29.0039L53.6621-25.0488L64.5508-34.7656Q66.2109-36.2305 68.2129-36.2305Q70.2637-36.2305 71.8262-34.7168L81.4453-25.9766L81.4453-21.582Q81.4453-20.2148 80.6641-19.4336Q79.8828-18.6523 78.5156-18.6523ZM49.7559-34.668Q47.3633-34.668 45.6787-36.3525Q43.9941-38.0371 43.9941-40.4297Q43.9941-42.7734 45.6787-44.458Q47.3633-46.1426 49.7559-46.1426Q52.0996-46.1426 53.7598-44.458Q55.4199-42.7734 55.4199-40.4297Q55.4199-38.0371 53.7598-36.3525Q52.0996-34.668 49.7559-34.668Z"/>
  </g>
  <g id="Regular-M" transform="matrix(1 0 0 1 1391.3 1126)">
   <path class="hierarchical-0:secondary SFSymbolsPreview4D4D4D" d="M58.5449 14.5508Q68.75 14.5508 77.7588 10.6445Q86.7676 6.73828 93.6523-0.146484Q100.537-7.03125 104.443-16.04Q108.35-25.0488 108.35-35.2539Q108.35-45.459 104.443-54.4678Q100.537-63.4766 93.6523-70.3613Q86.7676-77.2461 77.7344-81.1523Q68.7012-85.0586 58.4961-85.0586Q48.291-85.0586 39.2822-81.1523Q30.2734-77.2461 23.4131-70.3613Q16.5527-63.4766 12.6465-54.4678Q8.74023-45.459 8.74023-35.2539Q8.74023-25.0488 12.6465-16.04Q16.5527-7.03125 23.4375-0.146484Q30.3223 6.73828 39.3311 10.6445Q48.3398 14.5508 58.5449 14.5508ZM58.5449 6.25Q49.9023 6.25 42.3828 3.02734Q34.8633-0.195312 29.1748-5.88379Q23.4863-11.5723 20.2881-19.0918Q17.0898-26.6113 17.0898-35.2539Q17.0898-43.8965 20.2881-51.416Q23.4863-58.9355 29.1504-64.6484Q34.8145-70.3613 42.334-73.5596Q49.8535-76.7578 58.4961-76.7578Q67.1387-76.7578 74.6582-73.5596Q82.1777-70.3613 87.8906-64.6484Q93.6035-58.9355 96.8262-51.416Q100.049-43.8965 100.049-35.2539Q100.049-26.6113 96.8506-19.0918Q93.6523-11.5723 87.9639-5.88379Q82.2754-0.195312 74.7314 3.02734Q67.1875 6.25 58.5449 6.25Z"/>
   <path class="hierarchical-1:primary SFSymbolsPreview212121" d="M38.1836-13.5254L78.8574-13.5254Q82.5195-13.5254 84.375-15.3564Q86.2305-17.1875 86.2305-20.8008L86.2305-49.5117Q86.2305-53.125 84.375-54.9316Q82.5195-56.7383 78.8574-56.7383L38.1836-56.7383Q34.5215-56.7383 32.666-54.9316Q30.8105-53.125 30.8105-49.5117L30.8105-20.8008Q30.8105-17.1875 32.666-15.3564Q34.5215-13.5254 38.1836-13.5254ZM38.3789-17.9688Q36.9141-17.9688 36.084-18.7988Q35.2539-19.6289 35.2539-21.0449L35.2539-23.1934L41.7969-28.7109Q43.4082-30.0781 45.0195-30.0781Q46.7285-30.0781 48.3887-28.6621L52.8809-24.6094L64.1113-34.5703Q65.8203-36.084 67.8711-36.084Q69.9707-36.084 71.582-34.5215L81.7871-25.293L81.7871-21.0449Q81.7871-19.6289 80.957-18.7988Q80.127-17.9688 78.6621-17.9688ZM48.4375-34.5703Q46.0449-34.5703 44.3359-36.2549Q42.627-37.9395 42.627-40.3809Q42.627-42.7246 44.3359-44.4336Q46.0449-46.1426 48.4375-46.1426Q50.8301-46.1426 52.5146-44.4336Q54.1992-42.7246 54.1992-40.3809Q54.1992-37.9395 52.5146-36.2549Q50.8301-34.5703 48.4375-34.5703Z"/>
  </g>
  <g id="Light-M" transform="matrix(1 0 0 1 1095.41 1126)">
   <path class="hierarchical-0:secondary SFSymbolsPreview4D4D4D" d="M57.7148 13.7207Q67.7734 13.7207 76.6357 9.8877Q85.498 6.05469 92.2607-0.708008Q99.0234-7.4707 102.856-16.333Q106.689-25.1953 106.689-35.2539Q106.689-45.3125 102.856-54.1748Q99.0234-63.0371 92.2607-69.7998Q85.498-76.5625 76.6113-80.3955Q67.7246-84.2285 57.666-84.2285Q47.6074-84.2285 38.7451-80.3955Q29.8828-76.5625 23.1445-69.7998Q16.4062-63.0371 12.5732-54.1748Q8.74023-45.3125 8.74023-35.2539Q8.74023-25.1953 12.5732-16.333Q16.4062-7.4707 23.1689-0.708008Q29.9316 6.05469 38.7939 9.8877Q47.6562 13.7207 57.7148 13.7207ZM57.7148 7.37305Q48.877 7.37305 41.1377 4.07715Q33.3984 0.78125 27.5391-5.07812Q21.6797-10.9375 18.3838-18.6768Q15.0879-26.416 15.0879-35.2539Q15.0879-44.0918 18.3838-51.8311Q21.6797-59.5703 27.5391-65.4541Q33.3984-71.3379 41.1133-74.6338Q48.8281-77.9297 57.666-77.9297Q66.5527-77.9297 74.2676-74.6338Q81.9824-71.3379 87.8662-65.4541Q93.75-59.5703 97.0703-51.8311Q100.391-44.0918 100.391-35.2539Q100.391-26.416 97.0703-18.6768Q93.75-10.9375 87.915-5.07812Q82.0801 0.78125 74.3408 4.07715Q66.6016 7.37305 57.7148 7.37305Z"/>
   <path class="hierarchical-1:primary SFSymbolsPreview212121" d="M37.1094-13.916L78.2715-13.916Q81.6895-13.916 83.4473-15.6738Q85.2051-17.4316 85.2051-20.8008L85.2051-49.6094Q85.2051-52.9785 83.4473-54.7119Q81.6895-56.4453 78.2715-56.4453L37.1094-56.4453Q33.6914-56.4453 31.9336-54.7363Q30.1758-53.0273 30.1758-49.6094L30.1758-20.8008Q30.1758-17.3828 31.9336-15.6494Q33.6914-13.916 37.1094-13.916ZM37.4023-17.7246Q35.791-17.7246 34.8633-18.6279Q33.9355-19.5312 33.9355-20.9961L33.9355-23.0469L40.918-28.8574Q42.5781-30.2246 44.1406-30.2246Q45.8496-30.2246 47.5586-28.7598L51.9531-24.7559L63.2324-34.668Q65.0391-36.2305 67.0898-36.2305Q69.1895-36.2305 70.8984-34.6191L81.4453-25.2441L81.4453-20.9961Q81.4453-19.5312 80.5176-18.6279Q79.5898-17.7246 78.0273-17.7246ZM47.1191-34.7168Q44.7754-34.7168 43.0908-36.377Q41.4062-38.0371 41.4062-40.4297Q41.4062-42.7734 43.0908-44.458Q44.7754-46.1426 47.1191-46.1426Q49.4629-46.1426 51.123-44.458Q52.7832-42.7734 52.7832-40.4297Q52.7832-38.0371 51.123-36.377Q49.4629-34.7168 47.1191-34.7168Z"/>
  </g>
  <g id="Thin-M" transform="matrix(1 0 0 1 799.793 1126)">
   <path class="hierarchical-0:secondary SFSymbolsPreview4D4D4D" d="M56.5918 12.5977Q66.5039 12.5977 75.1709 8.88672Q83.8379 5.17578 90.4297-1.44043Q97.0215-8.05664 100.781-16.7236Q104.541-25.3906 104.541-35.2539Q104.541-45.1172 100.781-53.7842Q97.0215-62.4512 90.4297-69.0674Q83.8379-75.6836 75.1709-79.3945Q66.5039-83.1055 56.5918-83.1055Q46.7285-83.1055 38.0615-79.3945Q29.3945-75.6836 22.8271-69.0674Q16.2598-62.4512 12.5-53.7842Q8.74023-45.1172 8.74023-35.2539Q8.74023-25.3906 12.4756-16.7236Q16.2109-8.05664 22.8027-1.44043Q29.3945 5.17578 38.0859 8.88672Q46.7773 12.5977 56.5918 12.5977ZM56.5918 8.88672Q47.4609 8.88672 39.4775 5.44434Q31.4941 2.00195 25.415-4.05273Q19.3359-10.1074 15.918-18.1152Q12.5-26.123 12.5-35.2539Q12.5-44.3848 15.918-52.3926Q19.3359-60.4004 25.415-66.4795Q31.4941-72.5586 39.4775-76.001Q47.4609-79.4434 56.5918-79.4434Q65.7715-79.4434 73.7549-76.001Q81.7383-72.5586 87.8174-66.4795Q93.8965-60.4004 97.3389-52.3926Q100.781-44.3848 100.781-35.2539Q100.781-26.123 97.3633-18.1152Q93.9453-10.1074 87.8662-4.05273Q81.7871 2.00195 73.7793 5.44434Q65.7715 8.88672 56.5918 8.88672Z"/>
   <path class="hierarchical-1:primary SFSymbolsPreview212121" d="M35.6445-14.4531L77.5391-14.4531Q80.6152-14.4531 82.251-16.0889Q83.8867-17.7246 83.8867-20.752L83.8867-49.707Q83.8867-52.832 82.251-54.4434Q80.6152-56.0547 77.5391-56.0547L35.6445-56.0547Q32.5684-56.0547 30.957-54.4434Q29.3457-52.832 29.3457-49.707L29.3457-20.752Q29.3457-17.6758 30.957-16.0645Q32.5684-14.4531 35.6445-14.4531ZM36.084-17.3828Q34.2773-17.3828 33.252-18.3594Q32.2266-19.3359 32.2266-20.8984L32.2266-22.9004L39.7461-29.0039Q41.5039-30.4688 43.0176-30.4688Q44.6777-30.4688 46.4355-28.9551L50.7324-25L62.0605-34.7656Q64.0137-36.4746 66.0156-36.4746Q68.1152-36.4746 70.0684-34.7656L80.957-25.1465L80.957-20.8984Q80.957-19.3359 79.9561-18.3594Q78.9551-17.3828 77.1484-17.3828ZM45.4102-34.9121Q43.1152-34.9121 41.4551-36.5479Q39.7949-38.1836 39.7949-40.5273Q39.7949-42.8223 41.4551-44.458Q43.1152-46.0938 45.4102-46.0938Q47.6562-46.0938 49.292-44.458Q50.9277-42.8223 50.9277-40.5273Q50.9277-38.1836 49.292-36.5479Q47.6562-34.9121 45.4102-34.9121Z"/>
  </g>
  <g id="Ultralight-M" transform="matrix(1 0 0 1 503.641 1126)">
   <path class="hierarchical-0:secondary SFSymbolsPreview4D4D4D" d="M56.0547 12.0605Q65.8203 12.0605 74.3896 8.37402Q82.959 4.6875 89.4775-1.83105Q95.9961-8.34961 99.707-16.9189Q103.418-25.4883 103.418-35.2539Q103.418-45.0195 99.707-53.5889Q95.9961-62.1582 89.4775-68.6768Q82.959-75.1953 74.3896-78.8818Q65.8203-82.5684 56.0547-82.5684Q46.2891-82.5684 37.7197-78.8818Q29.1504-75.1953 22.6562-68.6768Q16.1621-62.1582 12.4512-53.5889Q8.74023-45.0195 8.74023-35.2539Q8.74023-25.4883 12.4268-16.9189Q16.1133-8.34961 22.6318-1.83105Q29.1504 4.6875 37.7197 8.37402Q46.2891 12.0605 56.0547 12.0605ZM56.0547 9.66797Q46.7773 9.66797 38.6475 6.17676Q30.5176 2.68555 24.3164-3.49121Q18.1152-9.66797 14.624-17.8223Q11.1328-25.9766 11.1328-35.2539Q11.1328-44.5312 14.624-52.6855Q18.1152-60.8398 24.3164-67.041Q30.5176-73.2422 38.6475-76.7334Q46.7773-80.2246 56.0547-80.2246Q65.3809-80.2246 73.5107-76.7334Q81.6406-73.2422 87.8174-67.041Q93.9941-60.8398 97.5098-52.6855Q101.025-44.5312 101.025-35.2539Q101.025-25.9766 97.5098-17.8223Q93.9941-9.66797 87.8174-3.49121Q81.6406 2.68555 73.5107 6.17676Q65.3809 9.66797 56.0547 9.66797Z"/>
   <path class="hierarchical-1:primary SFSymbolsPreview212121" d="M34.9121-14.6973L77.1484-14.6973Q80.0781-14.6973 81.6406-16.2842Q83.2031-17.8711 83.2031-20.752L83.2031-49.8047Q83.2031-52.7344 81.6406-54.2725Q80.0781-55.8105 77.1484-55.8105L34.9121-55.8105Q31.9824-55.8105 30.4443-54.2969Q28.9062-52.7832 28.9062-49.8047L28.9062-20.752Q28.9062-17.8223 30.4443-16.2598Q31.9824-14.6973 34.9121-14.6973ZM35.4004-17.2363Q33.4961-17.2363 32.4219-18.2617Q31.3477-19.2871 31.3477-20.8496L31.3477-22.8027L39.1113-29.1016Q40.918-30.5664 42.4316-30.5664Q44.0918-30.5664 45.8496-29.0039L50.0488-25.0977L61.4258-34.8633Q63.4766-36.5723 65.4785-36.5723Q67.5781-36.5723 69.5801-34.8633L80.7129-25.0977L80.7129-20.8496Q80.7129-19.2871 79.6387-18.2617Q78.5645-17.2363 76.709-17.2363ZM44.4824-35.0098Q42.2363-35.0098 40.6006-36.6455Q38.9648-38.2812 38.9648-40.5762Q38.9648-42.8711 40.6006-44.4824Q42.2363-46.0938 44.4824-46.0938Q46.7285-46.0938 48.3643-44.4824Q50-42.8711 50-40.5762Q50-38.2812 48.3643-36.6455Q46.7285-35.0098 44.4824-35.0098Z"/>
  </g>
  <g id="Black-S" transform="matrix(1 0 0 1 2884.57 696)">
   <path class="hierarchical-0:secondary SFSymbolsPreview4D4D4D" d="M48.8281 6.78711Q57.5195 6.78711 65.1123 3.51562Q72.7051 0.244141 78.4912-5.54199Q84.2773-11.3281 87.5488-18.9209Q90.8203-26.5137 90.8203-35.2051Q90.8203-43.8965 87.5488-51.4893Q84.2773-59.082 78.4912-64.8682Q72.7051-70.6543 65.1123-73.9258Q57.5195-77.1973 48.8281-77.1973Q40.1367-77.1973 32.5439-73.9258Q24.9512-70.6543 19.165-64.8682Q13.3789-59.082 10.1074-51.4893Q6.83594-43.8965 6.83594-35.2051Q6.83594-26.5137 10.1074-18.9209Q13.3789-11.3281 19.165-5.54199Q24.9512 0.244141 32.5439 3.51562Q40.1367 6.78711 48.8281 6.78711ZM48.8281-7.37305Q43.0664-7.37305 38.0127-9.5459Q32.959-11.7188 29.1504-15.5273Q25.3418-19.3359 23.1689-24.3896Q20.9961-29.4434 20.9961-35.2051Q20.9961-40.9668 23.1689-46.0205Q25.3418-51.0742 29.1504-54.8828Q32.959-58.6914 38.0127-60.8643Q43.0664-63.0371 48.8281-63.0371Q54.5898-63.0371 59.6436-60.8643Q64.6973-58.6914 68.5059-54.8828Q72.3145-51.0742 74.4873-46.0205Q76.6602-40.9668 76.6602-35.2051Q76.6602-29.4434 74.4873-24.3896Q72.3145-19.3359 68.5059-15.5273Q64.6973-11.7188 59.6436-9.5459Q54.5898-7.37305 48.8281-7.37305Z"/>
   <path class="hierarchical-1:primary SFSymbolsPreview212121" d="M35.5469-18.8477L62.1094-18.8477Q65.1855-18.8477 66.8945-20.5811Q68.6035-22.3145 68.6035-25.3906L68.6035-44.9707Q68.6035-48.0469 66.8945-49.7559Q65.1855-51.4648 62.1094-51.4648L35.5469-51.4648Q32.4707-51.4648 30.7617-49.7559Q29.0527-48.0469 29.0527-44.9707L29.0527-25.3906Q29.0527-22.3145 30.7617-20.5811Q32.4707-18.8477 35.5469-18.8477ZM36.7676-24.9023Q35.9863-24.9023 35.5469-25.3662Q35.1074-25.8301 35.1074-26.6113L35.1074-29.3457L37.8418-31.7383Q38.8184-32.666 39.8926-32.666Q41.0645-32.666 42.1387-31.7383L45.1172-29.0527L52.4414-35.6445Q53.5156-36.5723 54.8828-36.5723Q56.2988-36.5723 57.2754-35.5957L62.5488-30.7617L62.5488-26.6113Q62.5488-25.8301 62.0605-25.3662Q61.5723-24.9023 60.8887-24.9023ZM44.1406-35.2539Q42.3828-35.2539 41.1377-36.5234Q39.8926-37.793 39.8926-39.5508Q39.8926-41.2598 41.1377-42.5293Q42.3828-43.7988 44.1406-43.7988Q45.8984-43.7988 47.1436-42.5293Q48.3887-41.2598 48.3887-39.5508Q48.3887-37.793 47.1436-36.5234Q45.8984-35.2539 44.1406-35.2539Z"/>
  </g>
  <g id="Heavy-S" transform="matrix(1 0 0 1 2588.47 696)">
   <path class="hierarchical-0:secondary SFSymbolsPreview4D4D4D" d="M48.1934 6.15234Q56.7871 6.15234 64.2578 2.92969Q71.7285-0.292969 77.4414-6.00586Q83.1543-11.7188 86.377-19.1895Q89.5996-26.6602 89.5996-35.2051Q89.5996-43.75 86.377-51.2451Q83.1543-58.7402 77.4414-64.4531Q71.7285-70.166 64.2334-73.3887Q56.7383-76.6113 48.1934-76.6113Q39.6484-76.6113 32.1777-73.3887Q24.707-70.166 18.9941-64.4531Q13.2812-58.7402 10.0586-51.2451Q6.83594-43.75 6.83594-35.2051Q6.83594-26.6602 10.0586-19.1895Q13.2812-11.7188 18.9941-6.00586Q24.707-0.292969 32.2021 2.92969Q39.6973 6.15234 48.1934 6.15234ZM48.1934-6.39648Q42.2363-6.39648 37.0117-8.64258Q31.7871-10.8887 27.8564-14.8438Q23.9258-18.7988 21.6797-24.0234Q19.4336-29.248 19.4336-35.2051Q19.4336-41.1621 21.6553-46.4111Q23.877-51.6602 27.832-55.5908Q31.7871-59.5215 37.0117-61.7676Q42.2363-64.0137 48.1934-64.0137Q54.1992-64.0137 59.4238-61.7676Q64.6484-59.5215 68.5791-55.5908Q72.5098-51.6602 74.7803-46.4111Q77.0508-41.1621 77.0508-35.2051Q77.0508-29.248 74.8047-24.0234Q72.5586-18.7988 68.6035-14.8438Q64.6484-10.8887 59.4238-8.64258Q54.1992-6.39648 48.1934-6.39648Z"/>
   <path class="hierarchical-1:primary SFSymbolsPreview212121" d="M34.375-18.6523L62.1094-18.6523Q65.1855-18.6523 66.8457-20.3369Q68.5059-22.0215 68.5059-25.0488L68.5059-45.3125Q68.5059-48.3398 66.8457-50Q65.1855-51.6602 62.1094-51.6602L34.375-51.6602Q31.2988-51.6602 29.6387-50Q27.9785-48.3398 27.9785-45.3125L27.9785-25.0488Q27.9785-22.0215 29.6387-20.3369Q31.2988-18.6523 34.375-18.6523ZM35.3027-24.1699Q34.4727-24.1699 33.9844-24.6826Q33.4961-25.1953 33.4961-26.0254L33.4961-28.5156L36.7676-31.3477Q37.793-32.3242 38.916-32.3242Q40.1367-32.3242 41.2598-31.3477L44.3848-28.5156L52.0508-35.4004Q53.1738-36.377 54.5898-36.377Q56.0547-36.377 57.0801-35.3516L62.9395-29.9805L62.9395-26.0254Q62.9395-25.1953 62.4268-24.6826Q61.9141-24.1699 61.1328-24.1699ZM42.8711-35.1074Q41.0645-35.1074 39.7949-36.4014Q38.5254-37.6953 38.5254-39.4531Q38.5254-41.2109 39.7949-42.5049Q41.0645-43.7988 42.8711-43.7988Q44.6289-43.7988 45.8984-42.5049Q47.168-41.2109 47.168-39.4531Q47.168-37.6953 45.8984-36.4014Q44.6289-35.1074 42.8711-35.1074Z"/>
  </g>
  <g id="Bold-S" transform="matrix(1 0 0 1 2292.43 696)">
   <path class="hierarchical-0:secondary SFSymbolsPreview4D4D4D" d="M47.5586 5.46875Q55.957 5.46875 63.3057 2.29492Q70.6543-0.878906 76.2695-6.51855Q81.8848-12.1582 85.083-19.5068Q88.2812-26.8555 88.2812-35.2539Q88.2812-43.6035 85.083-50.9766Q81.8848-58.3496 76.2695-63.9648Q70.6543-69.5801 63.2812-72.7539Q55.9082-75.9277 47.5098-75.9277Q39.1602-75.9277 31.7871-72.7539Q24.4141-69.5801 18.8232-63.9648Q13.2324-58.3496 10.0342-50.9766Q6.83594-43.6035 6.83594-35.2539Q6.83594-26.8555 10.0342-19.5068Q13.2324-12.1582 18.8477-6.51855Q24.4629-0.878906 31.8115 2.29492Q39.1602 5.46875 47.5586 5.46875ZM47.5586-5.32227Q41.3574-5.32227 35.9375-7.6416Q30.5176-9.96094 26.416-14.0625Q22.3145-18.1641 19.9951-23.6084Q17.6758-29.0527 17.6758-35.2539Q17.6758-41.4551 19.9951-46.875Q22.3145-52.2949 26.3916-56.3965Q30.4688-60.498 35.8887-62.8174Q41.3086-65.1367 47.5098-65.1367Q53.7598-65.1367 59.1797-62.8174Q64.5996-60.498 68.7012-56.3965Q72.8027-52.2949 75.1221-46.875Q77.4414-41.4551 77.4414-35.2539Q77.4414-29.0527 75.1221-23.6084Q72.8027-18.1641 68.7256-14.0625Q64.6484-9.96094 59.2041-7.6416Q53.7598-5.32227 47.5586-5.32227Z"/>
   <path class="hierarchical-1:primary SFSymbolsPreview212121" d="M33.0078-18.457L62.1094-18.457Q65.1367-18.457 66.748-20.0684Q68.3594-21.6797 68.3594-24.6582L68.3594-45.6543Q68.3594-48.6816 66.748-50.2686Q65.1367-51.8555 62.1094-51.8555L33.0078-51.8555Q29.9805-51.8555 28.3691-50.2686Q26.7578-48.6816 26.7578-45.6543L26.7578-24.6582Q26.7578-21.6797 28.3691-20.0684Q29.9805-18.457 33.0078-18.457ZM33.6914-23.3887Q32.7637-23.3887 32.2266-23.9258Q31.6895-24.4629 31.6895-25.3906L31.6895-27.6367L35.5469-30.9082Q36.6211-31.9336 37.793-31.9336Q39.0625-31.9336 40.2344-30.8594L43.5059-27.9785L51.5625-35.1562Q52.7832-36.2305 54.248-36.2305Q55.7617-36.2305 56.8848-35.1074L63.4277-29.1504L63.4277-25.3906Q63.4277-24.4629 62.8662-23.9258Q62.3047-23.3887 61.4258-23.3887ZM41.4062-34.9609Q39.5508-34.9609 38.2568-36.2549Q36.9629-37.5488 36.9629-39.4043Q36.9629-41.1621 38.2568-42.4805Q39.5508-43.7988 41.4062-43.7988Q43.2129-43.7988 44.5068-42.4805Q45.8008-41.1621 45.8008-39.4043Q45.8008-37.5488 44.5068-36.2549Q43.2129-34.9609 41.4062-34.9609Z"/>
  </g>
  <g id="Semibold-S" transform="matrix(1 0 0 1 1996.19 696)">
   <path class="hierarchical-0:secondary SFSymbolsPreview4D4D4D" d="M47.0703 4.98047Q55.3711 4.98047 62.6465 1.85547Q69.9219-1.26953 75.4639-6.86035Q81.0059-12.4512 84.1553-19.7266Q87.3047-27.002 87.3047-35.2539Q87.3047-43.5059 84.1553-50.7812Q81.0059-58.0566 75.4395-63.623Q69.873-69.1895 62.5977-72.3389Q55.3223-75.4883 47.0215-75.4883Q38.7695-75.4883 31.4941-72.3389Q24.2188-69.1895 18.6768-63.623Q13.1348-58.0566 9.98535-50.7812Q6.83594-43.5059 6.83594-35.2539Q6.83594-27.002 9.98535-19.7266Q13.1348-12.4512 18.7012-6.86035Q24.2676-1.26953 31.543 1.85547Q38.8184 4.98047 47.0703 4.98047ZM47.0703-4.58984Q40.7227-4.58984 35.1562-6.95801Q29.5898-9.32617 25.3906-13.5254Q21.1914-17.7246 18.8232-23.291Q16.4551-28.8574 16.4551-35.2539Q16.4551-41.6016 18.8232-47.168Q21.1914-52.7344 25.3662-56.9336Q29.541-61.1328 35.1074-63.5254Q40.6738-65.918 47.0215-65.918Q53.418-65.918 58.9844-63.5254Q64.5508-61.1328 68.75-56.9336Q72.9492-52.7344 75.3418-47.168Q77.7344-41.6016 77.7344-35.2539Q77.7344-28.8574 75.3662-23.291Q72.998-17.7246 68.7988-13.5254Q64.5996-9.32617 59.0332-6.95801Q53.4668-4.58984 47.0703-4.58984Z"/>
   <path class="hierarchical-1:primary SFSymbolsPreview212121" d="M32.0312-18.2617L62.0117-18.2617Q65.0879-18.2617 66.6504-19.8486Q68.2129-21.4355 68.2129-24.4141L68.2129-45.8984Q68.2129-48.9258 66.6504-50.4639Q65.0879-52.002 62.0117-52.002L32.0312-52.002Q29.0527-52.002 27.4658-50.4639Q25.8789-48.9258 25.8789-45.8984L25.8789-24.4141Q25.8789-21.4355 27.4658-19.8486Q29.0527-18.2617 32.0312-18.2617ZM32.4707-22.8027Q31.4941-22.8027 30.957-23.3643Q30.4199-23.9258 30.4199-24.9512L30.4199-27.002L34.6191-30.5664Q35.791-31.6406 36.9629-31.6406Q38.2812-31.6406 39.502-30.5176L42.8711-27.5391L51.2207-34.9609Q52.4414-36.084 53.9551-36.084Q55.5176-36.084 56.6895-34.9121L63.6719-28.5156L63.6719-24.9512Q63.6719-23.9258 63.1104-23.3643Q62.5488-22.8027 61.5723-22.8027ZM40.332-34.8145Q38.4766-34.8145 37.1582-36.1328Q35.8398-37.4512 35.8398-39.3066Q35.8398-41.1133 37.1582-42.4561Q38.4766-43.7988 40.332-43.7988Q42.1387-43.7988 43.457-42.4561Q44.7754-41.1133 44.7754-39.3066Q44.7754-37.4512 43.457-36.1328Q42.1387-34.8145 40.332-34.8145Z"/>
  </g>
  <g id="Medium-S" transform="matrix(1 0 0 1 1699.83 696)">
   <path class="hierarchical-0:secondary SFSymbolsPreview4D4D4D" d="M46.7285 4.63867Q54.9316 4.63867 62.1338 1.51367Q69.3359-1.61133 74.8535-7.12891Q80.3711-12.6465 83.4961-19.8486Q86.6211-27.0508 86.6211-35.2539Q86.6211-43.4082 83.4961-50.6348Q80.3711-57.8613 74.8291-63.3789Q69.2871-68.8965 62.085-71.9971Q54.8828-75.0977 46.6797-75.0977Q38.4766-75.0977 31.2744-71.9971Q24.0723-68.8965 18.5791-63.3789Q13.0859-57.8613 9.96094-50.6348Q6.83594-43.4082 6.83594-35.2539Q6.83594-27.0508 9.96094-19.8486Q13.0859-12.6465 18.6035-7.12891Q24.1211-1.61133 31.3232 1.51367Q38.5254 4.63867 46.7285 4.63867ZM46.7285-4.00391Q40.2344-4.00391 34.5703-6.4209Q28.9062-8.83789 24.6338-13.1348Q20.3613-17.4316 17.9443-23.0957Q15.5273-28.7598 15.5273-35.2539Q15.5273-41.748 17.9199-47.4121Q20.3125-53.0762 24.585-57.373Q28.8574-61.6699 34.5215-64.0869Q40.1855-66.5039 46.6797-66.5039Q53.1738-66.5039 58.8379-64.0869Q64.502-61.6699 68.7988-57.373Q73.0957-53.0762 75.5127-47.4121Q77.9297-41.748 77.9297-35.2539Q77.9297-28.7598 75.5127-23.0957Q73.0957-17.4316 68.8477-13.1348Q64.5996-8.83789 58.9111-6.4209Q53.2227-4.00391 46.7285-4.00391Z"/>
   <path class="hierarchical-1:primary SFSymbolsPreview212121" d="M31.3477-18.1641L62.0117-18.1641Q65.0391-18.1641 66.5771-19.7021Q68.1152-21.2402 68.1152-24.1699L68.1152-46.0938Q68.1152-49.0723 66.5771-50.5859Q65.0391-52.0996 62.0117-52.0996L31.3477-52.0996Q28.3203-52.0996 26.7822-50.5859Q25.2441-49.0723 25.2441-46.0938L25.2441-24.1699Q25.2441-21.2402 26.7822-19.7021Q28.3203-18.1641 31.3477-18.1641ZM31.6406-22.3633Q30.6152-22.3633 30.0293-22.9492Q29.4434-23.5352 29.4434-24.6094L29.4434-26.5137L33.9844-30.3223Q35.1562-31.4453 36.4258-31.4453Q37.7441-31.4453 38.9648-30.2734L42.4316-27.2461L50.9766-34.8633Q52.2461-35.9863 53.7598-35.9863Q55.3711-35.9863 56.543-34.8145L63.916-28.0762L63.916-24.6094Q63.916-23.5352 63.3301-22.9492Q62.7441-22.3633 61.7188-22.3633ZM39.5508-34.7168Q37.6953-34.7168 36.3525-36.0596Q35.0098-37.4023 35.0098-39.2578Q35.0098-41.1133 36.3525-42.4561Q37.6953-43.7988 39.5508-43.7988Q41.4062-43.7988 42.7246-42.4561Q44.043-41.1133 44.043-39.2578Q44.043-37.4023 42.7246-36.0596Q41.4062-34.7168 39.5508-34.7168Z"/>
  </g>
  <g id="Regular-S" transform="matrix(1 0 0 1 1403.58 696)">
   <path class="hierarchical-0:secondary SFSymbolsPreview4D4D4D" d="M46.2402 4.15039Q54.3457 4.15039 61.4746 1.07422Q68.6035-2.00195 74.0479-7.4707Q79.4922-12.9395 82.5928-20.0684Q85.6934-27.1973 85.6934-35.2539Q85.6934-43.3105 82.5928-50.4395Q79.4922-57.5684 74.0234-63.0371Q68.5547-68.5059 61.4258-71.582Q54.2969-74.6582 46.1914-74.6582Q38.1348-74.6582 31.0059-71.582Q23.877-68.5059 18.457-63.0371Q13.0371-57.5684 9.93652-50.4395Q6.83594-43.3105 6.83594-35.2539Q6.83594-27.1973 9.93652-20.0684Q13.0371-12.9395 18.4814-7.4707Q23.9258-2.00195 31.0547 1.07422Q38.1836 4.15039 46.2402 4.15039ZM46.2402-3.27148Q39.5996-3.27148 33.8135-5.7373Q28.0273-8.20312 23.6572-12.5977Q19.2871-16.9922 16.8213-22.8027Q14.3555-28.6133 14.3555-35.2539Q14.3555-41.8945 16.7969-47.7051Q19.2383-53.5156 23.6084-57.9102Q27.9785-62.3047 33.7646-64.7705Q39.5508-67.2363 46.1914-67.2363Q52.8809-67.2363 58.667-64.7705Q64.4531-62.3047 68.8477-57.9102Q73.2422-53.5156 75.7324-47.7051Q78.2227-41.8945 78.2227-35.2539Q78.2227-28.6133 75.7568-22.8027Q73.291-16.9922 68.9209-12.5977Q64.5508-8.20312 58.7402-5.7373Q52.9297-3.27148 46.2402-3.27148Z"/>
   <path class="hierarchical-1:primary SFSymbolsPreview212121" d="M30.4199-18.0176L62.0117-18.0176Q65.0391-18.0176 66.5283-19.5068Q68.0176-20.9961 68.0176-23.9258L68.0176-46.3379Q68.0176-49.3164 66.5283-50.7812Q65.0391-52.2461 62.0117-52.2461L30.4199-52.2461Q27.4414-52.2461 25.9277-50.7812Q24.4141-49.3164 24.4141-46.3379L24.4141-23.9258Q24.4141-20.9961 25.9277-19.5068Q27.4414-18.0176 30.4199-18.0176ZM30.5176-21.8262Q29.4434-21.8262 28.833-22.4365Q28.2227-23.0469 28.2227-24.1699L28.2227-25.8789L33.1543-30.0293Q34.375-31.1523 35.6445-31.1523Q37.0117-31.1523 38.2812-29.9805L41.8457-26.8555L50.6348-34.668Q51.9531-35.8398 53.5156-35.8398Q55.1758-35.8398 56.3965-34.6191L64.209-27.4902L64.209-24.1699Q64.209-23.0469 63.5986-22.4365Q62.9883-21.8262 61.9141-21.8262ZM38.5742-34.6191Q36.6699-34.6191 35.3027-35.9619Q33.9355-37.3047 33.9355-39.209Q33.9355-41.0645 35.3027-42.4316Q36.6699-43.7988 38.5742-43.7988Q40.4297-43.7988 41.7725-42.4316Q43.1152-41.0645 43.1152-39.209Q43.1152-37.3047 41.7725-35.9619Q40.4297-34.6191 38.5742-34.6191Z"/>
  </g>
  <g id="Light-S" transform="matrix(1 0 0 1 1107.6 696)">
   <path class="hierarchical-0:secondary SFSymbolsPreview4D4D4D" d="M45.5078 3.41797Q53.4668 3.41797 60.4736 0.415039Q67.4805-2.58789 72.8271-7.95898Q78.1738-13.3301 81.2012-20.3125Q84.2285-27.2949 84.2285-35.2539Q84.2285-43.2129 81.2012-50.1953Q78.1738-57.1777 72.8027-62.5488Q67.4316-67.9199 60.4492-70.9229Q53.4668-73.9258 45.459-73.9258Q37.5488-73.9258 30.542-70.9229Q23.5352-67.9199 18.2129-62.5488Q12.8906-57.1777 9.86328-50.1953Q6.83594-43.2129 6.83594-35.2539Q6.83594-27.2949 9.86328-20.3125Q12.8906-13.3301 18.2373-7.95898Q23.584-2.58789 30.5908 0.415039Q37.5977 3.41797 45.5078 3.41797ZM45.5078-2.29492Q38.6719-2.29492 32.6904-4.83398Q26.709-7.37305 22.1924-11.9141Q17.6758-16.4551 15.1367-22.4365Q12.5977-28.418 12.5977-35.2539Q12.5977-42.0898 15.1367-48.0713Q17.6758-54.0527 22.1924-58.5938Q26.709-63.1348 32.666-65.6738Q38.623-68.2129 45.459-68.2129Q52.3438-68.2129 58.3252-65.6738Q64.3066-63.1348 68.8232-58.5938Q73.3398-54.0527 75.9277-48.0713Q78.5156-42.0898 78.5156-35.2539Q78.5156-28.418 75.9521-22.4365Q73.3887-16.4551 68.8721-11.9141Q64.3555-7.37305 58.374-4.83398Q52.3926-2.29492 45.5078-2.29492Z"/>
   <path class="hierarchical-1:primary SFSymbolsPreview212121" d="M29.4922-18.3594L61.5234-18.3594Q64.3555-18.3594 65.7471-19.7754Q67.1387-21.1914 67.1387-23.9258L67.1387-46.4355Q67.1387-49.2188 65.7471-50.5859Q64.3555-51.9531 61.5234-51.9531L29.4922-51.9531Q26.709-51.9531 25.293-50.5859Q23.877-49.2188 23.877-46.4355L23.877-23.9258Q23.877-21.1914 25.293-19.7754Q26.709-18.3594 29.4922-18.3594ZM29.6387-21.6309Q28.4668-21.6309 27.7832-22.29Q27.0996-22.9492 27.0996-24.1211L27.0996-25.7812L32.373-30.127Q33.6914-31.2988 34.9121-31.2988Q36.2793-31.2988 37.5488-30.0781L41.0645-27.002L49.8535-34.7656Q51.2695-35.9863 52.832-35.9863Q54.4922-35.9863 55.8105-34.7168L63.916-27.4414L63.916-24.1211Q63.916-22.9492 63.2324-22.29Q62.5488-21.6309 61.377-21.6309ZM37.4512-34.7656Q35.5469-34.7656 34.2041-36.084Q32.8613-37.4023 32.8613-39.2578Q32.8613-41.1133 34.2041-42.4561Q35.5469-43.7988 37.4512-43.7988Q39.2578-43.7988 40.5762-42.4561Q41.8945-41.1133 41.8945-39.2578Q41.8945-37.4023 40.5762-36.084Q39.2578-34.7656 37.4512-34.7656Z"/>
  </g>
  <g id="Thin-S" transform="matrix(1 0 0 1 811.863 696)">
   <path class="hierarchical-0:secondary SFSymbolsPreview4D4D4D" d="M44.5312 2.44141Q52.3438 2.44141 59.1553-0.488281Q65.9668-3.41797 71.1914-8.64258Q76.416-13.8672 79.3457-20.6787Q82.2754-27.4902 82.2754-35.2539Q82.2754-43.0176 79.3457-49.8291Q76.416-56.6406 71.1914-61.8652Q65.9668-67.0898 59.1553-70.0195Q52.3438-72.9492 44.5312-72.9492Q36.7676-72.9492 29.9316-70.0195Q23.0957-67.0898 17.9199-61.8652Q12.7441-56.6406 9.79004-49.8291Q6.83594-43.0176 6.83594-35.2539Q6.83594-27.4902 9.79004-20.6787Q12.7441-13.8672 17.9199-8.64258Q23.0957-3.41797 29.9316-0.488281Q36.7676 2.44141 44.5312 2.44141ZM44.5312-0.927734Q37.4512-0.927734 31.2256-3.58887Q25-6.25 20.2881-10.9619Q15.5762-15.6738 12.915-21.9238Q10.2539-28.1738 10.2539-35.2539Q10.2539-42.334 12.915-48.584Q15.5762-54.834 20.2881-59.5459Q25-64.2578 31.2256-66.9189Q37.4512-69.5801 44.5312-69.5801Q51.6602-69.5801 57.8857-66.9189Q64.1113-64.2578 68.8232-59.5459Q73.5352-54.834 76.1963-48.584Q78.8574-42.334 78.8574-35.2539Q78.8574-28.1738 76.1963-21.9238Q73.5352-15.6738 68.8232-10.9619Q64.1113-6.25 57.8857-3.58887Q51.6602-0.927734 44.5312-0.927734Z"/>
   <path class="hierarchical-1:primary SFSymbolsPreview212121" d="M28.1738-18.8477L60.8398-18.8477Q63.3301-18.8477 64.624-20.1416Q65.918-21.4355 65.918-23.877L65.918-46.5332Q65.918-49.0234 64.624-50.3174Q63.3301-51.6113 60.8398-51.6113L28.1738-51.6113Q25.6836-51.6113 24.3896-50.3418Q23.0957-49.0723 23.0957-46.5332L23.0957-23.877Q23.0957-21.4355 24.3896-20.1416Q25.6836-18.8477 28.1738-18.8477ZM28.4668-21.3379Q27.0508-21.3379 26.2939-22.0703Q25.5371-22.8027 25.5371-24.0234L25.5371-25.5859L31.2988-30.3223Q32.666-31.4453 33.8867-31.4453Q35.2051-31.4453 36.5234-30.2734L39.9414-27.1484L48.7793-34.8633Q50.293-36.1328 51.9043-36.1328Q53.5156-36.1328 55.0293-34.8145L63.4766-27.3438L63.4766-24.0234Q63.4766-22.8027 62.6953-22.0703Q61.9141-21.3379 60.5469-21.3379ZM35.8398-34.9121Q34.0332-34.9121 32.7393-36.2061Q31.4453-37.5 31.4453-39.3555Q31.4453-41.1621 32.7393-42.4561Q34.0332-43.75 35.8398-43.75Q37.6465-43.75 38.9404-42.4561Q40.2344-41.1621 40.2344-39.3555Q40.2344-37.5 38.9404-36.2061Q37.6465-34.9121 35.8398-34.9121Z"/>
  </g>
  <g id="Ultralight-S" transform="matrix(1 0 0 1 515.649 696)">
   <path class="hierarchical-0:secondary SFSymbolsPreview4D4D4D" d="M44.043 1.95312Q51.7578 1.95312 58.4717-0.927734Q65.1855-3.80859 70.3369-8.95996Q75.4883-14.1113 78.3936-20.8252Q81.2988-27.5391 81.2988-35.2539Q81.2988-42.9688 78.3936-49.6826Q75.4883-56.3965 70.3369-61.5479Q65.1855-66.6992 58.4717-69.5801Q51.7578-72.4609 44.043-72.4609Q36.377-72.4609 29.6387-69.5801Q22.9004-66.6992 17.7734-61.5479Q12.6465-56.3965 9.74121-49.6826Q6.83594-42.9688 6.83594-35.2539Q6.83594-27.5391 9.74121-20.8252Q12.6465-14.1113 17.7734-8.95996Q22.9004-3.80859 29.6387-0.927734Q36.377 1.95312 44.043 1.95312ZM44.043-0.292969Q36.8164-0.292969 30.4688-3.00293Q24.1211-5.71289 19.3115-10.5225Q14.502-15.332 11.7676-21.6797Q9.0332-28.0273 9.0332-35.2539Q9.0332-42.4805 11.7676-48.8281Q14.502-55.1758 19.3115-59.9854Q24.1211-64.7949 30.4688-67.5049Q36.8164-70.2148 44.043-70.2148Q51.2695-70.2148 57.6416-67.5049Q64.0137-64.7949 68.7988-59.9854Q73.584-55.1758 76.3184-48.8281Q79.0527-42.4805 79.0527-35.2539Q79.0527-28.0273 76.3428-21.6797Q73.6328-15.332 68.8232-10.5225Q64.0137-5.71289 57.666-3.00293Q51.3184-0.292969 44.043-0.292969Z"/>
   <path class="hierarchical-1:primary SFSymbolsPreview212121" d="M27.5391-19.0918L60.5469-19.0918Q62.8906-19.0918 64.1357-20.3369Q65.3809-21.582 65.3809-23.877L65.3809-46.6309Q65.3809-48.9746 64.1357-50.1953Q62.8906-51.416 60.5469-51.416L27.5391-51.416Q25.1953-51.416 23.9746-50.1953Q22.7539-48.9746 22.7539-46.6309L22.7539-23.877Q22.7539-21.5332 23.9746-20.3125Q25.1953-19.0918 27.5391-19.0918ZM27.8809-21.1914Q26.416-21.1914 25.6104-21.9482Q24.8047-22.7051 24.8047-23.9746L24.8047-25.5371L30.8105-30.3711Q32.2266-31.543 33.3984-31.543Q34.7168-31.543 36.084-30.3223L39.4043-27.2461L48.291-34.9121Q49.8535-36.2305 51.4648-36.2305Q53.0762-36.2305 54.6387-34.9121L63.2812-27.2949L63.2812-23.9746Q63.2812-22.7051 62.4756-21.9482Q61.6699-21.1914 60.2051-21.1914ZM35.1074-35.0098Q33.3008-35.0098 32.0068-36.3037Q30.7129-37.5977 30.7129-39.4043Q30.7129-41.2109 32.0068-42.4805Q33.3008-43.75 35.1074-43.75Q36.8652-43.75 38.1348-42.4805Q39.4043-41.2109 39.4043-39.4043Q39.4043-37.5977 38.1348-36.3037Q36.8652-35.0098 35.1074-35.0098Z"/>
  </g>
 </g>
</svg>
